<svg width="349" height="400" viewBox="0 0 349 400" fill="none" xmlns="http://www.w3.org/2000/svg">
<g clip-path="url(#clip0_5184_826)">
<path d="M152.185 379.504L151.076 384.212L151.343 384.494C151.284 384.638 151.224 384.782 151.153 384.926C150.564 386.217 149.89 387.471 149.136 388.679C148.139 390.284 147.023 391.833 145.866 393.352C145.232 394.193 144.579 395.027 143.926 395.856C143.908 395.884 143.889 395.911 143.867 395.937C143.874 395.907 143.884 395.878 143.897 395.85L143.683 395.804L142.455 390.636L142.081 391.453V391.459L141.476 392.811C141.523 393.059 141.571 393.3 141.63 393.542C141.624 393.536 141.624 393.525 141.618 393.519C141.612 393.513 141.612 393.513 141.612 393.508C141.535 393.346 141.452 393.191 141.375 393.03L140.449 395.09L138.574 394.676C137.589 394.181 136.604 393.68 135.625 393.162C122.252 386.123 109.869 377.139 101.532 364.908C98.2186 360.035 95.7139 354.689 94.1097 349.063C90.9472 337.885 91.493 325.856 97.2484 315.87C97.2484 315.869 97.2485 315.868 97.2488 315.868C97.2491 315.867 97.2496 315.866 97.2501 315.866C97.2507 315.865 97.2513 315.865 97.2521 315.864C97.2528 315.864 97.2536 315.864 97.2544 315.864C97.3968 315.611 97.5451 315.357 97.6994 315.104C97.8121 315.392 97.9189 315.68 98.0376 315.968V315.973C99.5845 319.882 101.452 323.664 103.621 327.283C103.787 327.565 103.953 327.847 104.131 328.124C109.43 336.753 116.335 344.352 124.494 350.536C124.517 350.557 124.54 350.576 124.566 350.594C124.594 350.617 124.624 350.638 124.655 350.657C126.47 352.038 128.347 353.337 130.285 354.553V354.559C131.798 355.515 133.353 356.418 134.931 357.276C138.295 359.095 141.956 360.844 145.101 363.026C148.157 365.138 150.732 367.653 152.102 371.02C152.209 371.291 152.31 371.561 152.399 371.832L149.955 379.147L152.185 379.504Z" fill="#F0F0F0"/>
<path d="M142.081 391.453V391.459L141.476 392.811C140.562 387.884 141.648 382.675 140.894 377.685C140.811 377.127 140.704 376.569 140.568 376.016C139.796 372.862 138.034 369.909 134.901 368.499C133.987 368.095 133.027 367.796 132.042 367.607C130.095 367.204 128.066 367.118 126.102 366.893C125.61 366.836 125.123 366.773 124.649 366.686C122.109 366.305 119.685 365.396 117.54 364.021C114.916 362.212 112.628 359.981 110.776 357.425C109.553 355.821 108.414 354.158 107.365 352.441C107.222 352.222 107.092 351.998 106.955 351.773C104.5 347.648 102.486 343.289 100.945 338.766C100.151 336.454 99.4856 334.102 98.9512 331.721C97.7621 326.517 97.1907 321.199 97.2483 315.87C97.2483 315.869 97.2485 315.868 97.2488 315.867C97.2491 315.867 97.2495 315.866 97.25 315.866C97.2506 315.865 97.2513 315.865 97.252 315.864C97.2527 315.864 97.2535 315.864 97.2543 315.864C97.2483 315.622 97.2543 315.38 97.2602 315.139C97.2721 314.644 98.0612 314.753 98.0493 315.248C98.0434 315.49 98.0375 315.726 98.0375 315.967V315.973C97.9892 321.079 98.5204 326.175 99.6217 331.168C99.681 331.421 99.7404 331.675 99.7938 331.928C101.398 338.847 104.094 345.485 107.786 351.606C107.828 351.676 107.869 351.745 107.917 351.814C108.777 353.235 109.702 354.617 110.676 355.969C112.463 358.573 114.662 360.888 117.19 362.83C119.318 364.374 121.789 365.413 124.405 365.863C124.666 365.909 124.928 365.955 125.195 365.996C125.402 366.03 125.616 366.059 125.829 366.082C127.829 366.324 129.882 366.416 131.87 366.784C132.773 366.95 133.661 367.19 134.522 367.504C135.931 368.051 137.206 368.882 138.261 369.942C139.316 371.001 140.129 372.265 140.645 373.651C141.174 374.995 141.536 376.396 141.725 377.823C141.79 378.29 141.838 378.756 141.879 379.228V379.234C141.938 379.993 141.968 380.759 141.98 381.524C141.992 382.48 141.974 383.435 141.95 384.385C141.819 386.741 141.862 389.103 142.081 391.453V391.453Z" fill="white"/>
<path d="M107.702 352.28C105.441 353.394 102.846 353.692 100.379 353.121C97.9127 352.55 95.7357 351.147 94.237 349.163C93.9352 348.76 94.5658 348.286 94.868 348.689C96.2601 350.54 98.2881 351.846 100.586 352.374C102.884 352.901 105.301 352.614 107.4 351.564C107.856 351.337 108.156 352.054 107.702 352.28H107.702Z" fill="white"/>
<path d="M124.328 366.093C125.98 361.327 125.72 356.132 123.599 351.543C123.388 351.089 124.126 350.796 124.336 351.25C126.535 356.029 126.794 361.436 125.064 366.392C124.899 366.864 124.164 366.563 124.328 366.093H124.328Z" fill="white"/>
<path d="M99.3913 331.24C100.359 330.985 101.246 330.502 101.973 329.833C102.7 329.164 103.245 328.33 103.558 327.407C103.717 326.933 104.452 327.234 104.294 327.705C103.943 328.724 103.34 329.644 102.539 330.385C101.737 331.126 100.76 331.665 99.694 331.955C99.5959 331.991 99.4875 331.989 99.3908 331.95C99.2942 331.91 99.2166 331.837 99.1737 331.744C99.1342 331.649 99.1348 331.543 99.1756 331.448C99.2163 331.354 99.2939 331.279 99.3914 331.24H99.3913Z" fill="white"/>
<path d="M143.831 395.983C143.843 395.965 143.855 395.954 143.867 395.937C143.843 396.006 143.819 396.075 143.802 396.149L143.831 395.983Z" fill="#F0F0F0"/>
<path d="M161.471 360.551L160.641 363.371L155.538 362.444L153.847 367.504L153.556 368.373L152.399 371.832L149.955 379.147L152.185 379.504L151.076 384.212L151.343 384.494L151.426 384.581L151.978 385.168L155.336 388.725L146.151 396.351L144.68 396.023L143.926 395.856C143.908 395.884 143.889 395.911 143.867 395.936C143.874 395.907 143.884 395.878 143.897 395.85L143.683 395.804L142.455 390.636L142.081 391.453V391.459L141.476 392.811C141.523 393.059 141.571 393.3 141.63 393.542C141.624 393.536 141.624 393.525 141.618 393.519C141.612 393.513 141.612 393.513 141.612 393.508C141.535 393.346 141.452 393.191 141.375 393.03C140.2 390.653 139.079 388.241 138.04 385.801C135.481 379.923 133.474 373.834 132.042 367.607C131.982 367.337 131.917 367.066 131.87 366.79V366.784C130.999 362.758 130.469 358.669 130.285 354.559V354.553C130.191 352.303 130.214 350.05 130.357 347.802C130.732 341.992 132.047 336.276 134.255 330.863C134.267 330.834 134.279 330.811 134.29 330.783C138.521 320.457 145.967 311.501 156.09 306.73C156.511 306.523 156.944 306.327 157.377 306.143H157.389L157.395 306.137C157.668 306.022 157.935 305.912 158.208 305.797C158.119 306.097 158.024 306.396 157.941 306.701C156.743 310.723 155.886 314.832 155.378 318.989V318.995C155.33 319.312 155.289 319.64 155.253 319.962V319.968C154.134 329.994 154.942 340.134 157.638 349.874C157.644 349.903 157.656 349.926 157.662 349.955C158.669 353.571 159.942 357.112 161.471 360.551Z" fill="#F0F0F0"/>
<path d="M151.978 385.168C151.509 385.778 151.028 386.371 150.542 386.964C150.073 387.533 149.604 388.103 149.136 388.679C147.91 390.143 146.817 391.707 145.866 393.352C145.39 394.207 144.993 395.1 144.68 396.023L143.926 395.856C143.908 395.884 143.888 395.911 143.867 395.937C143.874 395.907 143.884 395.878 143.896 395.85C145.279 391.66 148.424 388.414 151.153 384.926C151.248 384.811 151.337 384.696 151.426 384.581L151.978 385.168Z" fill="white"/>
<path d="M158.403 306.12C158.249 306.31 158.089 306.505 157.941 306.701C156.784 308.157 155.69 309.659 154.66 311.208C152.824 313.939 151.194 316.796 149.782 319.755C149.67 319.985 149.557 320.221 149.45 320.457C146.428 326.922 144.459 333.804 143.612 340.855C143.6 340.924 143.594 340.987 143.588 341.056C143.392 342.702 143.266 344.354 143.208 346.012C143.019 349.134 143.337 352.265 144.152 355.29C144.27 355.687 144.401 356.079 144.543 356.458C144.9 357.389 145.347 358.286 145.878 359.135C146.26 359.755 146.684 360.349 147.148 360.913C147.427 361.259 147.717 361.598 148.026 361.926C148.204 362.116 148.388 362.306 148.572 362.496C148.726 362.64 148.875 362.79 149.029 362.934C150.631 364.442 152.399 365.84 153.847 367.504L153.556 368.373C152.162 366.657 150.364 365.236 148.744 363.739C147.727 362.812 146.801 361.794 145.979 360.7C145.872 360.551 145.759 360.401 145.659 360.246C145.109 359.467 144.634 358.64 144.241 357.777C144.039 357.345 143.855 356.902 143.689 356.441C142.719 353.465 142.278 350.351 142.383 347.232C142.402 345.234 142.525 343.238 142.751 341.252C142.775 340.993 142.805 340.74 142.84 340.481C143.442 335.753 144.539 331.098 146.116 326.587C148.11 320.864 150.854 315.413 154.28 310.367C155.259 308.923 156.297 307.512 157.395 306.137C157.537 305.947 157.686 305.763 157.84 305.573C158.154 305.181 158.718 305.728 158.403 306.12Z" fill="white"/>
<path d="M143.123 341.325C140.626 340.894 138.369 339.616 136.754 337.72C135.139 335.823 134.271 333.431 134.306 330.972C134.309 330.871 134.351 330.776 134.425 330.705C134.498 330.635 134.597 330.595 134.7 330.594C134.804 330.592 134.904 330.63 134.979 330.699C135.054 330.768 135.099 330.862 135.104 330.962C135.067 333.253 135.875 335.48 137.383 337.243C138.891 339.007 140.998 340.189 143.325 340.577C143.831 340.662 143.626 341.409 143.123 341.325V341.325Z" fill="white"/>
<path d="M147.824 362.064C152.102 359.223 155.118 354.923 156.272 350.021C156.386 349.535 157.157 349.732 157.044 350.217C155.833 355.316 152.684 359.785 148.226 362.732C147.801 363.013 147.401 362.343 147.824 362.064H147.824Z" fill="white"/>
<path d="M149.546 319.671C150.476 320.033 151.484 320.166 152.48 320.056C153.476 319.947 154.428 319.599 155.252 319.045C155.673 318.759 156.072 319.429 155.654 319.713C154.741 320.321 153.689 320.704 152.589 320.827C151.489 320.95 150.375 320.811 149.343 320.42C149.243 320.391 149.158 320.326 149.105 320.238C149.052 320.15 149.036 320.046 149.059 319.947C149.086 319.848 149.153 319.764 149.244 319.712C149.335 319.661 149.444 319.646 149.546 319.671V319.671Z" fill="white"/>
<path d="M234.131 64.4215C229.639 41.0996 236.711 14.567 256.368 0.450195C255.254 26.2283 263.576 51.5578 279.86 71.9572C286.17 79.8023 294.03 87.8907 293.786 97.8383C293.634 104.028 290.183 109.794 285.636 114.138C281.088 118.482 275.486 121.614 269.951 124.698L269.089 125.998C252.864 108.245 238.623 87.7434 234.131 64.4215Z" fill="#F0F0F0"/>
<path d="M256.726 0.806734C248.468 18.7363 246.243 38.7343 250.368 57.9603C251.277 62.074 252.569 66.1703 254.76 69.8251C256.924 73.3716 260.027 76.2914 263.747 78.2811C267.177 80.2039 270.916 81.7853 273.805 84.4835C276.85 87.3276 278.206 91.2092 278.093 95.2648C277.954 100.227 275.986 104.845 273.9 109.296C271.583 114.238 269.096 119.336 269.247 124.892C269.265 125.565 268.187 125.553 268.169 124.881C267.907 115.214 275.112 107.45 276.717 98.1746C277.467 93.8463 276.876 89.2728 273.739 85.9178C270.995 82.984 267.142 81.35 263.651 79.4322C259.986 77.4185 256.865 74.9307 254.546 71.4817C252.173 67.9535 250.714 63.8976 249.7 59.8245C247.471 50.5716 246.757 41.0363 247.582 31.568C248.462 20.7569 251.242 10.1714 255.801 0.26954C256.084 -0.343206 257.007 0.197988 256.726 0.806734H256.726Z" fill="white"/>
<path d="M248.664 51.8455C245.245 52.0789 241.851 51.1257 239.09 49.1562C236.328 47.1866 234.378 44.3289 233.588 41.0934C233.43 40.4382 234.473 40.1699 234.63 40.826C235.36 43.8402 237.177 46.502 239.753 48.331C242.328 50.1599 245.493 51.0356 248.675 50.7998C249.367 50.7494 249.352 51.7953 248.664 51.8455V51.8455Z" fill="white"/>
<path d="M261.875 77.5284C266.517 72.4366 269.01 65.8349 268.857 59.0394C268.841 58.3662 269.919 58.3779 269.934 59.0504C270.08 66.1221 267.472 72.9872 262.629 78.2755C262.168 78.7792 261.416 78.0294 261.875 77.5284V77.5284Z" fill="white"/>
<path d="M249.725 21.4062C251.067 21.5833 252.434 21.4342 253.702 20.9723C254.97 20.5104 256.101 19.7501 256.991 18.7598C257.446 18.2506 258.198 19.001 257.745 19.5069C256.756 20.5966 255.507 21.4347 254.107 21.9481C252.707 22.4614 251.198 22.6344 249.713 22.4518C249.572 22.446 249.438 22.3881 249.339 22.29C249.24 22.1918 249.183 22.0608 249.18 21.9235C249.182 21.7851 249.241 21.6531 249.343 21.5562C249.445 21.4593 249.582 21.4054 249.725 21.4062V21.4062Z" fill="white"/>
<path d="M336.755 19.741C336.48 20.0667 336.206 20.3925 335.933 20.7268C332.261 25.1252 328.964 29.8057 326.074 34.722C325.844 35.0987 325.617 35.4838 325.399 35.8661C318.566 47.7827 314.073 60.8264 312.148 74.3341C311.388 79.7099 311.05 85.1339 311.137 90.5594C311.259 98.0522 312.005 106.167 309.637 113.058C309.399 113.78 309.114 114.486 308.785 115.174L270.792 126.916C270.691 126.901 270.594 126.894 270.493 126.879L268.998 127.415C268.973 127.136 268.954 126.845 268.929 126.566C268.914 126.404 268.908 126.239 268.893 126.077C268.886 125.968 268.879 125.859 268.866 125.761C268.863 125.725 268.861 125.689 268.861 125.661C268.848 125.563 268.847 125.471 268.836 125.381C268.723 123.758 268.619 122.132 268.532 120.501C268.529 120.493 268.529 120.493 268.535 120.482C267.883 108.059 268.294 95.4738 270.662 83.3494C270.733 82.9847 270.801 82.6116 270.89 82.2415C271.988 76.7821 273.545 71.419 275.544 66.2056C276.648 63.3544 277.9 60.5591 279.296 57.8307C282.915 50.7876 287.654 44.3405 293.339 38.726C304.674 27.5351 319.572 19.9852 335.535 19.7475C335.944 19.7417 336.344 19.7383 336.755 19.741Z" fill="#F0F0F0"/>
<path d="M336.823 20.2351C319.101 29.7275 304.913 44.3954 296.273 62.1555C294.446 65.9712 292.935 69.9963 292.416 74.1939C291.943 78.2893 292.608 82.4329 294.344 86.1944C295.889 89.7331 297.893 93.1792 298.525 97.0207C299.191 101.07 297.864 104.961 295.257 108.133C292.067 112.014 287.629 114.552 283.201 116.888C278.284 119.481 273.134 122.098 269.805 126.622C269.402 127.171 268.549 126.532 268.952 125.984C274.743 118.113 285.314 116.122 292.353 109.653C295.637 106.635 298.004 102.638 297.582 98.1273C297.212 94.1827 295.149 90.6273 293.553 87.0574C291.876 83.3089 290.929 79.5001 291.217 75.3917C291.513 71.189 292.865 67.0981 294.583 63.2538C298.547 54.5644 303.894 46.5336 310.43 39.4556C317.842 31.3373 326.632 24.509 336.418 19.2659C337.024 18.9416 337.425 19.9129 336.823 20.2351V20.2351Z" fill="white"/>
<path d="M298.708 56.278C295.833 54.4674 293.716 51.7244 292.733 48.5389C291.75 45.3535 291.967 41.9329 293.344 38.888C293.625 38.2729 294.624 38.6673 294.343 39.2833C293.055 42.1164 292.853 45.3027 293.774 48.2672C294.696 51.2317 296.679 53.7791 299.366 55.4497C299.95 55.8134 299.289 56.6396 298.708 56.278H298.708Z" fill="white"/>
<path d="M293.317 84.5002C300.183 83.1457 306.271 79.3304 310.366 73.8151C310.771 73.2683 311.625 73.9073 311.22 74.4534C306.947 80.185 300.604 84.1429 293.455 85.5372C292.774 85.6697 292.639 84.6319 293.317 84.5002H293.317Z" fill="white"/>
<path d="M318.448 32.5934C319.409 33.5188 320.593 34.198 321.893 34.5699C323.192 34.9418 324.566 34.9948 325.892 34.7242C326.571 34.5835 326.705 35.6214 326.03 35.7612C324.564 36.0536 323.047 35.9932 321.61 35.5854C320.174 35.1776 318.862 34.4347 317.79 33.4217C317.68 33.3344 317.609 33.21 317.591 33.0738C317.573 32.9376 317.609 32.7998 317.692 32.6884C317.779 32.5792 317.908 32.5079 318.049 32.4901C318.191 32.4724 318.334 32.5095 318.448 32.5934V32.5934Z" fill="white"/>
<path d="M92.6056 36.5609C90.5062 35.1234 88.2093 33.6243 85.6403 33.6842C79.4226 33.8293 76.0703 42.6712 69.8589 42.3602C65.8978 42.1619 63.2682 38.2585 59.58 36.8431C54.7782 35.0005 48.6676 38.6042 48.1438 43.5874L48.7605 43.0399C67.4258 47.4539 86.7954 48.3219 105.801 45.5961C101.402 42.5844 97.004 39.5726 92.6056 36.5609Z" fill="#F0F0F0"/>
<path d="M104.24 47.1963C116.155 47.1963 125.815 37.826 125.815 26.2673C125.815 14.7085 116.155 5.33826 104.24 5.33826C92.3239 5.33826 82.6643 14.7085 82.6643 26.2673C82.6643 37.826 92.3239 47.1963 104.24 47.1963Z" fill="#FF6582"/>
<path d="M154.742 22.2692C152.066 20.4372 149.139 18.5268 145.865 18.6032C137.941 18.788 133.669 30.0563 125.753 29.66C120.705 29.4073 117.354 24.4327 112.654 22.6289C106.534 20.2807 98.7467 24.8732 98.0791 31.2239L98.865 30.5262C122.652 36.1515 147.337 37.2577 171.558 33.7838C165.953 29.9456 160.347 26.1074 154.742 22.2692Z" fill="#F0F0F0"/>
<path d="M348.812 232.366L325.916 113.444C325.524 111.483 324.458 109.71 322.891 108.415C321.324 107.12 319.35 106.38 317.292 106.315C317.107 106.312 316.922 106.312 316.737 106.315L301.14 106.858L299.461 106.918L291.677 107.19L289.998 107.245L284.991 107.421L184.025 110.937C183.873 110.945 183.717 110.945 183.564 110.941L160.94 110.482L152.567 110.315L152.3 110.311L146.12 110.183L92.2715 109.097L77.9948 108.806L70.9552 108.666L69.2683 108.63L61.2413 108.471L59.5585 108.435L51.3463 108.271L49.6635 108.235L40.6408 108.052L39.2255 108.024L31.1779 107.86L29.9065 107.836H29.7214C27.585 107.845 25.5203 108.585 23.8926 109.928C22.2648 111.27 21.1787 113.128 20.8263 115.172L0.118808 238.576C-0.0914788 239.826 -0.0190927 241.106 0.330952 242.326C0.680996 243.546 1.30032 244.678 2.14604 245.643C2.99175 246.608 4.04364 247.383 5.22882 247.915C6.414 248.447 7.70414 248.722 9.00986 248.722H127.93C129.681 248.726 131.384 249.272 132.794 250.278L135.048 251.899C136.602 253.008 138.48 253.609 140.409 253.615H210.493C211.677 253.618 212.85 253.393 213.944 252.953C215.038 252.513 216.031 251.867 216.866 251.052C218.293 249.668 220.199 248.845 222.214 248.742L340.427 242.699C341.709 242.634 342.962 242.304 344.102 241.731C345.241 241.158 346.242 240.356 347.036 239.377C347.83 238.399 348.399 237.267 348.705 236.058C349.012 234.849 349.048 233.59 348.812 232.366V232.366Z" fill="#CCCCCC"/>
<path d="M330.076 229.133L317.313 106.475C317.309 106.423 317.301 106.367 317.292 106.316C317.053 104.356 316.056 102.557 314.503 101.283L287.048 79.0964C285.854 78.1242 284.37 77.5492 282.814 77.456C270.253 76.6737 206.395 73.7762 182.824 93.6239C182.109 94.2277 181.266 94.672 180.354 94.9258C179.443 95.1795 178.486 95.2365 177.549 95.0926C176.611 94.9449 175.716 94.6024 174.926 94.0886C174.137 93.5748 173.471 92.9017 172.974 92.1153C170.97 89.085 168.344 86.4874 165.26 84.4843C163.875 83.5516 162.432 82.7025 160.94 81.942C159.619 81.2675 158.183 80.6129 156.62 79.9824C155.274 79.4395 153.838 78.9167 152.3 78.4178C144.322 75.8316 133.658 73.8999 119.405 73.2534C113.493 72.982 107.067 72.9461 100.307 73.1416C94.1353 73.3172 87.577 73.6804 80.8172 74.2232L80.7185 74.2272L34.9794 101.315C33.954 101.935 33.0875 102.773 32.4452 103.766C31.803 104.759 31.402 105.881 31.2725 107.046L31.1778 107.86L16.6542 233.743C16.5288 234.813 16.6301 235.896 16.9521 236.926C17.274 237.956 17.8097 238.912 18.5262 239.734C19.2237 240.535 20.0923 241.18 21.0719 241.624C22.0515 242.068 23.1188 242.3 24.1999 242.304H136.9C138.398 242.311 139.85 242.811 141.018 243.721L145.939 247.544C147.221 248.543 148.808 249.102 150.452 249.133L200.005 249.919H200.125C201.376 249.917 202.606 249.607 203.7 249.017L213.257 243.869C214.129 243.398 215.1 243.125 216.096 243.07L322.904 237.599C323.945 237.545 324.963 237.279 325.891 236.818C326.819 236.357 327.636 235.712 328.29 234.925C328.969 234.123 329.477 233.198 329.784 232.203C330.091 231.209 330.19 230.165 330.076 229.133V229.133Z" fill="#E6E6E6"/>
<path d="M292.794 207.013L291.299 187.922L284.992 107.423L284.055 95.5149C283.817 92.3871 282.388 89.457 280.045 87.2958C277.702 85.1347 274.613 83.8974 271.381 83.8252C248.27 83.2497 206.422 84.2627 185.887 97.61C183.603 99.1161 180.833 99.7655 178.092 99.4373C175.351 99.109 172.826 97.8255 170.988 95.8257C168.147 92.7997 164.735 90.3284 160.937 88.5449C158.158 87.1927 155.268 86.0646 152.298 85.172C143.606 82.4784 132.637 80.8419 119.392 80.2625L87.9568 80.084H87.9034C85.7258 80.086 83.6306 80.8921 82.0436 82.3386C80.4567 83.785 79.4969 85.7633 79.3593 87.8714L77.9947 108.805L72.0316 200.607C71.9201 202.317 72.168 204.032 72.7602 205.646C73.3525 207.261 74.2768 208.742 75.477 209.999C76.6772 211.256 78.1283 212.264 79.7422 212.961C81.3561 213.658 83.0991 214.029 84.8655 214.052C137.631 214.812 160.682 225.616 170.733 234.537C172.87 236.439 175.601 237.595 178.492 237.822C181.382 238.049 184.269 237.335 186.694 235.792C204.939 224.2 235.27 220.976 259.413 220.476C266.806 220.326 273.618 220.424 279.326 220.62C281.16 220.684 282.988 220.371 284.689 219.703C286.391 219.034 287.928 218.025 289.199 216.74C290.47 215.456 291.448 213.926 292.068 212.249C292.687 210.573 292.935 208.789 292.794 207.013V207.013Z" fill="white"/>
<path d="M30.8445 233.64C30.8248 233.64 30.8043 233.64 30.7846 233.638C30.6746 233.631 30.5671 233.602 30.4684 233.554C30.3697 233.506 30.2817 233.44 30.2093 233.359C30.137 233.279 30.0818 233.185 30.0469 233.083C30.012 232.982 29.998 232.875 30.0058 232.768L39.0845 108.416C39.0909 108.309 39.1194 108.204 39.1683 108.107C39.2172 108.011 39.2854 107.925 39.369 107.855C39.4525 107.784 39.5498 107.731 39.655 107.697C39.7602 107.664 39.8712 107.651 39.9815 107.66C40.0916 107.668 40.199 107.696 40.2977 107.744C40.3964 107.792 40.4844 107.858 40.5568 107.939C40.6291 108.02 40.6843 108.113 40.7192 108.215C40.7542 108.316 40.7681 108.424 40.7604 108.53L31.6817 232.883C31.6669 233.088 31.5723 233.281 31.4169 233.421C31.2616 233.562 31.057 233.64 30.8445 233.64Z" fill="white"/>
<path d="M41.7698 228.749C41.7501 228.749 41.7296 228.748 41.7099 228.747C41.5998 228.739 41.4924 228.711 41.3937 228.663C41.295 228.615 41.207 228.549 41.1346 228.468C41.0623 228.387 41.0071 228.293 40.9722 228.192C40.9373 228.09 40.9233 227.983 40.931 227.877L50.0098 103.524C50.0162 103.417 50.0447 103.312 50.0936 103.216C50.1425 103.12 50.2107 103.034 50.2942 102.963C50.3778 102.893 50.4751 102.839 50.5803 102.806C50.6855 102.773 50.7965 102.76 50.9068 102.769C51.0168 102.776 51.1243 102.805 51.223 102.853C51.3217 102.9 51.4097 102.967 51.4821 103.047C51.5544 103.128 51.6096 103.222 51.6445 103.324C51.6794 103.425 51.6934 103.532 51.6857 103.639L42.607 227.991C42.5922 228.197 42.4976 228.389 42.3422 228.53C42.1869 228.671 41.9823 228.749 41.7698 228.749V228.749Z" fill="white"/>
<path d="M51.8548 226.303C51.8351 226.303 51.8146 226.302 51.7949 226.301C51.6848 226.293 51.5774 226.265 51.4787 226.217C51.38 226.169 51.2919 226.103 51.2196 226.022C51.1473 225.942 51.0921 225.848 51.0571 225.746C51.0222 225.645 51.0082 225.537 51.016 225.431L60.0947 101.079C60.1012 100.971 60.1297 100.867 60.1785 100.77C60.2274 100.674 60.2956 100.588 60.3792 100.518C60.4628 100.447 60.56 100.394 60.6652 100.36C60.7704 100.327 60.8814 100.314 60.9918 100.323C61.1018 100.331 61.2092 100.359 61.3079 100.407C61.4066 100.455 61.4947 100.521 61.567 100.602C61.6393 100.682 61.6945 100.776 61.7295 100.878C61.7644 100.979 61.7784 101.086 61.7706 101.193L52.6919 225.545C52.6771 225.751 52.5825 225.944 52.4272 226.084C52.2718 226.225 52.0673 226.303 51.8548 226.303V226.303Z" fill="white"/>
<path d="M61.9395 221.412C61.9198 221.412 61.8993 221.411 61.8796 221.41C61.7695 221.402 61.6621 221.374 61.5634 221.326C61.4647 221.278 61.3766 221.212 61.3043 221.131C61.232 221.05 61.1768 220.956 61.1419 220.855C61.1069 220.753 61.0929 220.646 61.1007 220.539L70.1794 96.1872C70.1859 96.08 70.2144 95.9752 70.2633 95.8788C70.3121 95.7825 70.3804 95.6966 70.4639 95.6262C70.5475 95.5558 70.6448 95.5023 70.75 95.4689C70.8552 95.4355 70.9662 95.4229 71.0765 95.4317C71.1865 95.4392 71.294 95.4677 71.3927 95.5155C71.4914 95.5633 71.5794 95.6295 71.6517 95.7103C71.7241 95.7911 71.7793 95.8849 71.8142 95.9864C71.8491 96.0879 71.8631 96.1951 71.8553 96.3019L62.7766 220.654C62.7618 220.86 62.6673 221.052 62.5119 221.193C62.3566 221.334 62.152 221.412 61.9395 221.412V221.412Z" fill="white"/>
<path d="M319.944 234.456C319.963 234.456 319.984 234.455 320.003 234.453C320.114 234.446 320.221 234.417 320.32 234.37C320.418 234.322 320.506 234.256 320.579 234.175C320.651 234.094 320.706 234 320.741 233.899C320.776 233.797 320.79 233.69 320.782 233.583L311.704 109.231C311.697 109.124 311.669 109.019 311.62 108.923C311.571 108.826 311.503 108.74 311.419 108.67C311.336 108.6 311.238 108.546 311.133 108.513C311.028 108.479 310.917 108.467 310.807 108.476C310.697 108.483 310.589 108.511 310.49 108.559C310.392 108.607 310.304 108.673 310.231 108.754C310.159 108.835 310.104 108.929 310.069 109.03C310.034 109.132 310.02 109.239 310.028 109.346L319.106 233.698C319.121 233.903 319.216 234.096 319.371 234.237C319.527 234.377 319.731 234.456 319.944 234.456V234.456Z" fill="white"/>
<path d="M309.018 227.119C309.038 227.119 309.058 227.118 309.078 227.116C309.188 227.109 309.296 227.08 309.394 227.032C309.493 226.985 309.581 226.918 309.653 226.838C309.726 226.757 309.781 226.663 309.816 226.561C309.851 226.46 309.865 226.353 309.857 226.246L300.778 101.894C300.772 101.787 300.743 101.682 300.694 101.585C300.646 101.489 300.577 101.403 300.494 101.333C300.41 101.262 300.313 101.209 300.208 101.176C300.103 101.142 299.992 101.13 299.881 101.138C299.771 101.146 299.664 101.174 299.565 101.222C299.466 101.27 299.378 101.336 299.306 101.417C299.234 101.498 299.178 101.592 299.144 101.693C299.109 101.795 299.095 101.902 299.102 102.009L308.181 226.361C308.196 226.566 308.291 226.759 308.446 226.9C308.601 227.04 308.806 227.118 309.018 227.119V227.119Z" fill="white"/>
<path d="M298.933 218.966C298.953 218.966 298.974 218.965 298.993 218.964C299.103 218.956 299.211 218.928 299.309 218.88C299.408 218.832 299.496 218.766 299.569 218.685C299.641 218.604 299.696 218.511 299.731 218.409C299.766 218.308 299.78 218.2 299.772 218.094L290.693 93.7415C290.687 93.6343 290.658 93.5295 290.61 93.4332C290.561 93.3368 290.492 93.2509 290.409 93.1805C290.325 93.1101 290.228 93.0566 290.123 93.0232C290.018 92.9898 289.907 92.9772 289.796 92.986C289.686 92.9935 289.579 93.022 289.48 93.0698C289.381 93.1176 289.293 93.1838 289.221 93.2646C289.149 93.3454 289.094 93.4392 289.059 93.5407C289.024 93.6422 289.01 93.7494 289.017 93.8562L298.096 218.208C298.111 218.414 298.206 218.607 298.361 218.747C298.516 218.888 298.721 218.966 298.933 218.966V218.966Z" fill="white"/>
<path d="M92.6887 108.175C111.632 102.312 132.766 103.865 150.713 112.124C155.833 114.469 160.669 117.358 165.132 120.739C166.394 121.7 168.19 119.981 166.914 119.01C150.431 106.607 129.72 100.716 108.942 102.519C103.194 103.018 97.5193 104.124 92.0184 105.817C90.4785 106.293 91.1367 108.656 92.6887 108.175H92.6887Z" fill="#3F3D56"/>
<path d="M196.929 121.688C214.541 112.708 235.632 110.749 254.781 115.847C260.241 117.297 265.517 119.332 270.512 121.914C271.943 122.655 273.218 120.544 271.784 119.802C253.533 110.355 231.625 108.181 211.694 113.447C206.135 114.918 200.757 116.974 195.656 119.576C194.219 120.308 195.492 122.42 196.929 121.688V121.688Z" fill="#3F3D56"/>
<path d="M196.929 137.992C214.541 129.012 235.632 127.054 254.781 132.152C260.241 133.601 265.517 135.636 270.512 138.219C271.943 138.959 273.218 136.849 271.784 136.107C253.533 126.66 231.625 124.485 211.694 129.751C206.135 131.223 200.757 133.278 195.656 135.881C194.219 136.613 195.492 138.725 196.929 137.992V137.992Z" fill="#3F3D56"/>
<path d="M272.401 153.422C272.414 153.213 272.362 153.004 272.251 152.823C272.14 152.642 271.976 152.498 271.78 152.409C257.159 144.982 240.582 141.97 224.181 143.76C224.078 143.768 223.984 143.784 223.873 143.792H223.868C223.767 143.801 223.667 143.815 223.568 143.836C213.813 144.925 204.35 147.754 195.656 152.181C195.467 152.291 195.31 152.446 195.201 152.632C195.092 152.818 195.035 153.029 195.035 153.243V183.659C195.038 183.846 195.085 184.03 195.173 184.197C195.26 184.364 195.385 184.51 195.539 184.623C195.693 184.736 195.871 184.813 196.06 184.85C196.25 184.886 196.445 184.88 196.632 184.832C197.018 184.725 197.405 184.621 197.8 184.521C206.589 182.213 215.612 180.844 224.708 180.438C224.901 180.43 225.094 180.422 225.296 180.414C232.704 180.106 240.126 180.364 247.493 181.188C247.647 181.197 247.801 181.213 247.954 181.236C248.332 181.276 248.719 181.32 249.097 181.368C249.25 181.384 249.394 181.4 249.534 181.424C251.006 181.604 252.467 181.807 253.932 182.027C256.047 182.354 258.161 182.718 260.276 183.12C260.408 183.144 260.544 183.176 260.679 183.2C264.074 183.855 267.451 184.613 270.813 185.451C271 185.498 271.196 185.503 271.385 185.466C271.575 185.428 271.753 185.35 271.907 185.236C272.06 185.123 272.186 184.976 272.273 184.809C272.36 184.642 272.406 184.457 272.409 184.27V153.47C272.411 153.454 272.408 153.438 272.401 153.422Z" fill="#3F3D56"/>
<path d="M226.158 145.419C225.234 144.98 224.175 144.89 223.187 145.165C222.75 145.324 222.351 145.566 222.011 145.875C221.671 146.185 221.398 146.558 221.208 146.971C220.866 147.762 220.646 148.599 220.557 149.454C220.505 149.79 220.501 150.214 220.85 150.371C220.976 150.415 221.113 150.425 221.245 150.4C221.376 150.375 221.499 150.315 221.598 150.227C221.778 150.055 221.926 149.854 222.036 149.634C222.641 148.721 223.473 147.971 224.455 147.453C225.438 146.935 226.539 146.665 227.657 146.669L228.588 147.029C227.856 146.389 227.038 145.848 226.158 145.419V145.419Z" fill="#FF6582"/>
<path d="M236.232 152.429C235.509 151.397 234.653 150.296 233.313 149.959C231.761 149.569 230.166 150.344 228.813 151.109C224.791 153.381 220.896 155.859 217.145 158.532L217.149 158.572L225.856 158.054C227.953 157.929 230.122 157.787 231.975 156.93C232.641 156.526 233.385 156.257 234.161 156.141C234.643 156.166 235.114 156.284 235.549 156.487C235.983 156.69 236.372 156.974 236.693 157.324C240.706 161.014 241.867 166.656 246.369 169.898C243.504 163.808 240.113 157.964 236.232 152.429V152.429Z" fill="white"/>
<path d="M225.297 180.414C225.096 180.422 224.902 180.43 224.709 180.438C223.306 179.949 221.869 179.517 220.415 179.142C219.473 178.897 218.516 178.677 217.557 178.49C216.473 178.262 215.381 178.082 214.288 177.927C212.208 177.634 210.112 177.462 208.01 177.414C207.994 177.415 207.978 177.414 207.963 177.409C207.948 177.404 207.934 177.396 207.922 177.386C207.91 177.376 207.9 177.363 207.894 177.349C207.887 177.334 207.884 177.319 207.884 177.304C207.884 177.288 207.887 177.273 207.894 177.258C207.9 177.244 207.91 177.232 207.922 177.221C207.934 177.211 207.948 177.203 207.963 177.198C207.978 177.193 207.994 177.192 208.01 177.194C208.279 177.194 208.548 177.202 208.809 177.218C210.915 177.293 213.014 177.492 215.095 177.813C216.179 177.984 217.263 178.188 218.339 178.416C219.314 178.628 220.289 178.865 221.247 179.126C222.617 179.501 223.967 179.93 225.297 180.414Z" fill="white"/>
<path d="M249.535 181.425C249.392 181.4 249.249 181.384 249.098 181.368C248.518 180.903 247.93 180.463 247.316 180.031C246.551 179.492 245.762 178.987 244.955 178.514C243.168 177.462 241.303 176.541 239.374 175.759C236.326 174.527 233.17 173.561 229.945 172.873C226.266 172.091 222.542 171.525 218.793 171.177C215.044 170.802 211.279 170.574 207.514 170.346C207.355 170.337 207.346 170.109 207.514 170.117C207.985 170.15 208.456 170.174 208.935 170.207C212.742 170.435 216.549 170.696 220.331 171.112C224.081 171.502 227.8 172.128 231.466 172.987C234.596 173.735 237.65 174.753 240.593 176.028C242.286 176.765 243.925 177.612 245.501 178.563C246.501 179.175 247.468 179.827 248.392 180.52C248.779 180.813 249.165 181.107 249.535 181.425Z" fill="white"/>
<path d="M247.955 181.237C247.802 181.213 247.648 181.197 247.493 181.188C247.316 181.05 247.131 180.919 246.947 180.789C245.653 179.89 244.303 179.071 242.904 178.335C241.634 177.665 240.33 177.058 238.996 176.517C235.949 175.282 232.793 174.316 229.567 173.631C225.888 172.849 222.164 172.283 218.415 171.935C214.666 171.56 210.901 171.332 207.136 171.104C206.977 171.087 206.977 170.867 207.136 170.875C207.615 170.908 208.086 170.932 208.557 170.965C212.364 171.193 216.171 171.454 219.953 171.87C223.702 172.26 227.422 172.886 231.088 173.745C234.218 174.492 237.272 175.51 240.215 176.786C241.324 177.275 242.408 177.805 243.467 178.384C245.037 179.22 246.538 180.174 247.955 181.237V181.237Z" fill="white"/>
<path d="M260.679 183.202C260.544 183.177 260.41 183.145 260.275 183.12C260.124 182.965 259.981 182.802 259.838 182.639C259.116 181.832 258.401 181.017 257.695 180.194C254.914 176.982 252.275 173.672 249.787 170.297C247.652 167.411 245.627 164.468 243.711 161.468C242.795 160.049 241.912 158.614 241.047 157.163C240.375 156.038 239.719 154.911 239.08 153.78C238.895 153.454 238.719 153.128 238.543 152.802C238.131 152.035 237.719 151.261 237.282 150.503C236.807 149.574 236.109 148.769 235.248 148.155C234.818 147.875 234.319 147.709 233.803 147.674C233.074 147.677 232.357 147.856 231.718 148.196C227.017 150.32 222.581 152.959 218.499 156.063C214.512 159.071 210.906 162.527 207.758 166.359C207.658 166.473 207.439 166.367 207.531 166.245C207.909 165.788 208.296 165.332 208.683 164.883C211.708 161.412 215.115 158.271 218.843 155.516C218.852 155.508 218.868 155.5 218.877 155.492C219.205 155.239 219.532 154.995 219.869 154.758C221.95 153.272 224.116 151.9 226.357 150.649C227.499 150.005 228.668 149.394 229.861 148.815C230.155 148.669 230.458 148.522 230.76 148.383C231.063 148.236 231.365 148.098 231.668 147.959C232.267 147.663 232.922 147.488 233.592 147.446C235.929 147.413 237.131 149.696 237.963 151.236C238.223 151.717 238.492 152.198 238.753 152.679C239.761 154.497 240.812 156.307 241.904 158.093C242.568 159.201 243.257 160.302 243.955 161.394C244.955 162.951 245.98 164.492 247.047 166.025C247.047 166.026 247.048 166.027 247.048 166.028C247.048 166.029 247.049 166.03 247.05 166.031C247.051 166.032 247.052 166.032 247.053 166.033C247.054 166.033 247.055 166.033 247.056 166.033C248.291 167.843 249.577 169.62 250.905 171.389C253.182 174.414 255.569 177.37 258.065 180.259C258.923 181.253 259.794 182.234 260.679 183.202Z" fill="white"/>
<path d="M272.411 179.607V179.982C271.579 179.036 270.73 178.099 269.889 177.161C269.537 176.77 269.184 176.378 268.831 175.987C267.335 174.34 265.83 172.699 264.318 171.063C262.796 169.433 261.275 167.802 259.737 166.18C259.367 165.788 258.998 165.397 258.62 165.006C258.317 164.677 257.988 164.372 257.636 164.093C257.281 163.806 256.873 163.588 256.434 163.449C255.929 163.313 255.396 163.307 254.888 163.432C254.308 163.563 253.754 163.767 253.191 163.938C252.611 164.125 252.039 164.305 251.459 164.484C250.299 164.851 249.148 165.218 247.988 165.585C247.974 165.59 247.959 165.593 247.943 165.593C247.928 165.593 247.913 165.589 247.898 165.583C247.884 165.577 247.872 165.568 247.861 165.557C247.85 165.546 247.842 165.533 247.837 165.519C247.83 165.504 247.827 165.487 247.828 165.471C247.829 165.454 247.834 165.438 247.842 165.423C247.85 165.408 247.861 165.395 247.875 165.385C247.888 165.375 247.904 165.368 247.921 165.365C248.207 165.275 248.501 165.185 248.795 165.095C249.963 164.72 251.123 164.354 252.291 163.987C252.871 163.799 253.451 163.62 254.031 163.441C254.569 163.242 255.137 163.132 255.712 163.115C256.651 163.18 257.531 163.581 258.183 164.24C258.544 164.566 258.872 164.908 259.199 165.259C259.586 165.666 259.973 166.074 260.359 166.481C261.914 168.128 263.457 169.78 264.99 171.438C266.528 173.101 268.052 174.767 269.562 176.435C269.671 176.558 269.78 176.68 269.889 176.802C270.738 177.732 271.57 178.669 272.411 179.607Z" fill="white"/>
<path d="M230.696 147.197L230.463 147.296C229.931 146.423 229.184 145.692 228.29 145.167C227.396 144.642 226.382 144.34 225.339 144.286C221.898 144.049 218.876 146.273 218.601 149.244C218.489 150.467 218.854 151.687 219.624 152.662L219.408 152.786C218.607 151.77 218.227 150.5 218.343 149.226C218.629 146.133 221.776 143.816 225.359 144.063C226.446 144.119 227.502 144.434 228.433 144.981C229.364 145.527 230.141 146.289 230.696 147.197V147.197Z" fill="#FF6582"/>
<path d="M213.694 153.208C212.791 152.827 211.808 152.659 210.825 152.72C209.842 152.781 208.888 153.068 208.042 153.556C211.131 154.016 214.192 154.633 217.213 155.405C215.962 154.772 214.984 153.78 213.694 153.208Z" fill="white"/>
<path d="M208.025 153.554L207.685 153.792C207.8 153.709 207.92 153.631 208.042 153.557L208.025 153.554Z" fill="white"/>
<path d="M257.506 165.595C257.188 165.198 256.765 164.893 256.282 164.713L255.804 164.729C259.555 170.391 264.469 175.242 270.24 178.978C265.995 174.517 261.75 170.056 257.506 165.595Z" fill="white"/>
<path d="M218.266 154.938C218.13 154.807 217.995 154.677 217.859 154.546C216.813 153.442 215.553 152.548 214.151 151.915C213.438 151.623 212.672 151.47 211.898 151.464C211.098 151.482 210.307 151.631 209.558 151.904C209.206 152.026 208.861 152.164 208.522 152.311C208.134 152.479 207.754 152.659 207.374 152.84C206.663 153.18 205.961 153.535 205.268 153.905C203.889 154.64 202.553 155.432 201.261 156.281C200.591 156.72 199.934 157.175 199.292 157.643C198.695 158.079 198.109 158.526 197.536 158.985C197.413 159.082 197.23 158.924 197.353 158.826C197.504 158.705 197.657 158.584 197.81 158.465C198.241 158.128 198.68 157.797 199.125 157.473C199.938 156.881 200.771 156.312 201.626 155.766C202.955 154.916 204.329 154.124 205.75 153.389C206.459 153.023 207.179 152.671 207.908 152.335C208.128 152.234 208.351 152.135 208.576 152.041C209.091 151.817 209.622 151.63 210.165 151.482C210.944 151.266 211.759 151.197 212.565 151.279C213.336 151.374 214.085 151.598 214.778 151.94C216.152 152.687 217.392 153.646 218.449 154.779C218.559 154.886 218.377 155.045 218.266 154.938Z" fill="white"/>
<path d="M92.6887 124.48C111.632 118.617 132.766 120.169 150.713 128.429C155.833 130.773 160.669 133.663 165.132 137.044C166.394 138.005 168.19 136.286 166.914 135.314C150.431 122.912 129.72 117.021 108.942 118.823C103.194 119.322 97.5193 120.428 92.0184 122.122C90.4785 122.598 91.1367 124.96 92.6887 124.48H92.6887Z" fill="#3F3D56"/>
<path d="M92.6887 140.785C111.632 134.922 132.766 136.474 150.713 144.733C155.833 147.078 160.669 149.967 165.132 153.348C166.394 154.309 168.19 152.59 166.914 151.619C150.431 139.217 129.72 133.325 108.942 135.128C103.194 135.627 97.5193 136.733 92.0184 138.426C90.4785 138.903 91.1367 141.265 92.6887 140.785H92.6887Z" fill="#3F3D56"/>
<path d="M92.6887 157.089C111.632 151.226 132.766 152.779 150.713 161.038C155.833 163.383 160.669 166.272 165.132 169.653C166.394 170.614 168.19 168.895 166.914 167.924C150.431 155.522 129.72 149.63 108.942 151.433C103.194 151.932 97.5193 153.038 92.0184 154.731C90.4785 155.208 91.1367 157.57 92.6887 157.089H92.6887Z" fill="#3F3D56"/>
<path d="M92.6887 173.394C111.632 167.531 132.766 169.083 150.713 177.343C155.833 179.687 160.669 182.577 165.132 185.958C166.394 186.919 168.19 185.2 166.914 184.228C150.431 171.826 129.72 165.935 108.942 167.738C103.194 168.236 97.5193 169.342 92.0184 171.036C90.4785 171.512 91.1367 173.874 92.6887 173.394H92.6887Z" fill="#3F3D56"/>
<path d="M92.6887 189.699C111.632 183.836 132.766 185.388 150.713 193.648C155.833 195.992 160.669 198.881 165.132 202.263C166.394 203.224 168.19 201.504 166.914 200.533C150.431 188.131 129.72 182.24 108.942 184.042C103.194 184.541 97.5193 185.647 92.0184 187.34C90.4785 187.817 91.1367 190.179 92.6887 189.699L92.6887 189.699Z" fill="#3F3D56"/>
<path d="M160.94 81.9419V127.64C160.94 128.418 159.541 129.069 157.652 129.244C157.323 129.276 156.978 129.292 156.62 129.292C155.58 129.311 154.546 129.148 153.567 128.809C153.385 128.741 153.209 128.66 153.04 128.566C152.571 128.298 152.3 127.983 152.3 127.64V78.4178C153.838 78.9167 155.274 79.4395 156.62 79.9823C158.183 80.6129 159.619 81.2675 160.94 81.9419Z" fill="#00BFA6"/>
<path d="M179.048 97.6111H177.813V245.433H179.048V97.6111Z" fill="#E6E6E6"/>
<path d="M289.205 216.734C287.932 218.019 286.395 219.029 284.692 219.699C282.99 220.368 281.161 220.682 279.326 220.62C273.618 220.424 266.806 220.326 259.413 220.476L259.372 220.441L291.412 180.152L292.794 207.013C292.933 208.787 292.685 210.57 292.066 212.245C291.448 213.919 290.473 215.449 289.205 216.734V216.734Z" fill="#F2F2F2"/>
<path d="M209.442 357.546L207.734 371.003L206.428 381.231L205.906 385.358H198.478V381.691L198.472 369.558V357.546H209.442Z" fill="#FFB6B6"/>
<path d="M157.644 356.136L155.538 362.444L153.847 367.504L153.556 368.373L152.399 371.832L149.955 379.147L148.738 382.791L141.98 381.524L141.44 381.427L141.879 379.228L142.146 377.887L145.101 363.026L145.582 360.631L145.659 360.246L145.878 359.135L146.875 354.122L154.078 355.469L154.909 355.624L157.644 356.136Z" fill="#FFB6B6"/>
<path d="M220.603 277.411C216.355 300.059 215.293 309.838 215.293 309.838C215.293 309.838 218.479 313.441 216.355 315.501C214.231 317.562 216.355 321.677 216.355 321.677L211.578 371.607L207.734 371.003L198.472 369.558L195.131 369.035L197.255 322.195C197.255 322.195 195.131 318.074 196.193 317.044C197.255 316.014 195.131 309.838 195.131 309.838L192.479 260.938L176.026 314.471C176.026 314.471 177.622 316.532 176.026 318.074C174.436 319.617 171.255 327.341 171.255 327.341L161.471 360.551L160.64 363.371L155.538 362.444L149.984 361.431L148.964 361.247L147.148 360.913L145.979 360.701L145.582 360.631L143.659 360.28L144.241 357.777L144.543 356.459L152.82 320.797L153.01 319.974L153.212 319.104C153.212 319.104 152.15 316.532 153.74 314.983C154.205 314.512 154.545 313.937 154.73 313.309C154.915 312.681 154.94 312.02 154.802 311.38C154.75 311.327 154.702 311.269 154.66 311.208C154.472 310.958 154.342 310.671 154.28 310.367C154.138 309.723 154.262 308.819 155.336 307.777C155.638 307.466 155.892 307.113 156.09 306.73C157.703 303.766 158.516 297.486 158.516 297.486C158.516 297.486 159.952 247.752 164.651 240.154C164.837 239.823 165.099 239.537 165.417 239.32C170.721 236.235 221.659 239.32 221.659 239.32C221.659 239.32 221.73 239.677 221.843 240.356C222.454 244.172 224.205 258.198 220.603 277.411Z" fill="#2F2E41"/>
<path d="M218.934 186.04L220.421 177.349L247.811 181.82L286.672 184.517C287.516 183.612 288.637 182.996 289.871 182.759C291.105 182.523 292.384 182.679 293.519 183.205C294.654 183.731 295.583 184.599 296.168 185.678C296.754 186.758 296.964 187.992 296.768 189.197C296.572 190.402 295.98 191.513 295.08 192.365C294.18 193.218 293.021 193.765 291.774 193.926C290.528 194.088 289.261 193.854 288.162 193.261C287.064 192.667 286.192 191.745 285.677 190.632L261.843 192.188L218.934 186.04Z" fill="#FFB6B6"/>
<path d="M198.46 180.024L200.394 172.265C200.394 172.265 210.896 170.39 219.199 172.184L250.435 177.999L247.907 196.316L198.46 180.024Z" fill="#00BFA6"/>
<path d="M125.958 243.915L143.433 207.088L156.187 181.033L167.247 187.348L132.815 247.968C133.118 249.048 133.083 250.192 132.715 251.253C132.348 252.315 131.664 253.247 130.75 253.932C129.837 254.616 128.735 255.023 127.583 255.099C126.431 255.176 125.282 254.92 124.28 254.363C123.279 253.807 122.47 252.974 121.956 251.971C121.442 250.969 121.246 249.841 121.393 248.73C121.54 247.619 122.023 246.576 122.782 245.731C123.54 244.887 124.539 244.28 125.653 243.986C125.754 243.96 125.856 243.936 125.958 243.915L125.958 243.915Z" fill="#FFB6B6"/>
<path d="M176.357 169.869L167.875 166.094C167.875 166.094 166.371 165.587 163.127 169.944C159.884 174.3 131.983 215.408 131.983 215.408L149.7 223.177L176.357 169.869Z" fill="#00BFA6"/>
<path d="M219.043 393.369L208.001 385.968V381.139L206.428 381.231L198.478 381.691L196.383 381.812L194.935 398.63L194.917 398.866H200.133L200.18 398.63L201.064 394.089L203.325 398.63L203.444 398.866H217.28C217.696 398.865 218.107 398.785 218.491 398.63C219.004 398.42 219.45 398.079 219.781 397.644C220.112 397.21 220.317 396.696 220.373 396.158C220.43 395.62 220.336 395.078 220.102 394.587C219.868 394.096 219.502 393.676 219.043 393.369H219.043Z" fill="#2F2E41"/>
<path d="M160.148 393.813L155.336 388.725L151.978 385.168L151.426 384.581L151.343 384.494L151.076 384.212L152.185 379.504L149.954 379.147L142.146 377.887L141.725 377.824L140.894 377.685L140.704 377.657L138.04 385.801L135.625 393.162L135.364 393.968L138.574 394.676L140.449 395.09L141.375 393.03L141.476 392.811L142.081 391.459V391.453L142.455 390.636L143.683 395.804L143.896 395.85L143.926 395.856L144.68 396.023L146.151 396.351L156.44 398.63L157.169 398.791C157.973 398.965 158.815 398.823 159.512 398.398C160.209 397.972 160.704 397.296 160.89 396.518C161.001 396.042 160.992 395.548 160.863 395.077C160.734 394.605 160.488 394.172 160.148 393.813V393.813Z" fill="#2F2E41"/>
<path d="M207.769 146.124C206.569 148.26 204.903 150.116 202.888 151.564C200.872 153.011 198.555 154.014 196.098 154.504C195.825 154.561 195.552 154.607 195.273 154.648C191.419 155.232 187.474 154.534 184.08 152.667C180.686 150.8 178.044 147.874 176.582 144.365C175.121 140.856 174.926 136.971 176.03 133.341C177.135 129.711 179.473 126.55 182.664 124.373C185.855 122.196 189.712 121.131 193.607 121.351C197.502 121.57 201.206 123.062 204.116 125.583C207.026 128.104 208.97 131.506 209.634 135.235C210.297 138.965 209.64 142.802 207.769 146.124V146.124Z" fill="#FFB6B6"/>
<path d="M200.898 123.372C195.244 119.599 190.264 119.025 186.174 120.095C185.644 119.299 184.9 118.658 184.023 118.242C180.833 110.445 171.125 105.762 162.794 108.038C154.409 110.329 148.623 119.339 150.201 127.65C151.179 132.802 154.521 137.262 155.865 142.336C158.467 152.156 152.119 163.406 142.189 166.572C151.591 168.403 161.941 162.832 165.314 154.123C166.952 149.894 167.051 145.275 167.26 140.761C167.314 137.645 167.708 134.544 168.434 131.508C168.794 130.146 169.303 128.826 169.952 127.568C171.365 124.805 173.713 122.595 176.603 121.308C176.344 122.085 176.28 122.91 176.414 123.716C176.549 124.521 176.879 125.284 177.378 125.941C175.173 128.621 173.973 131.519 173.973 133.254C169.392 141.375 175.942 148.351 184.314 152.794C187.654 154.576 191.51 155.228 195.273 154.648L195.624 153.197L196.098 154.504L197.682 158.884C199.51 159.741 201.321 160.682 203.117 161.704C202.435 158.596 201.883 155.494 201.503 152.461C200.977 148.332 202.81 142.186 204.133 138.448C204.953 136.145 205.373 133.726 205.378 131.289V131.182L206.665 135.194L211.353 133.254C210.481 128.402 211.353 122.894 200.898 123.372Z" fill="#2F2E41"/>
<path d="M164.884 234.688C165.501 232.323 165.501 229.847 164.884 227.482C163.823 223.879 165.946 222.334 165.946 222.334L166.476 166.744C168.718 164.569 174.724 164.534 178.085 164.703V162.255C178.085 161.353 178.454 160.489 179.111 159.851C179.768 159.214 180.659 158.856 181.589 158.856H197.128C198.057 158.856 198.948 159.214 199.605 159.851C200.262 160.489 200.631 161.353 200.631 162.255V165.189L205.189 165.259C213.126 165.832 220.069 173.435 220.069 173.435L213.171 199.172C213.171 199.172 215.294 220.276 217.947 222.849C220.6 225.423 219.539 226.967 219.539 226.967C219.539 226.967 217.947 232.629 221.13 234.688C224.314 236.747 222.192 240.35 222.192 240.35C222.192 240.35 164.885 241.379 163.293 239.835C161.701 238.291 164.884 234.688 164.884 234.688Z" fill="#00BFA6"/>
<path d="M270.473 399.315C270.473 399.405 270.455 399.494 270.42 399.577C270.385 399.661 270.333 399.736 270.267 399.8C270.201 399.864 270.123 399.914 270.038 399.948C269.952 399.983 269.86 400 269.767 400H103.461C103.273 400 103.094 399.928 102.961 399.799C102.829 399.671 102.755 399.497 102.755 399.315C102.755 399.133 102.829 398.959 102.961 398.831C103.094 398.702 103.273 398.63 103.461 398.63H269.767C269.86 398.63 269.952 398.647 270.038 398.682C270.123 398.716 270.201 398.767 270.267 398.83C270.333 398.894 270.385 398.969 270.42 399.053C270.455 399.136 270.473 399.225 270.473 399.315V399.315Z" fill="#CCCCCC"/>
</g>
<defs>
<clipPath id="clip0_5184_826">
<rect width="348.966" height="400" fill="white"/>
</clipPath>
</defs>
</svg>
