<svg width="551" height="400" viewBox="0 0 551 400" fill="none" xmlns="http://www.w3.org/2000/svg">
<g clip-path="url(#clip0_5184_899)">
<path d="M355.753 69.6524C355.555 69.3652 355.356 69.078 355.143 68.7989C351.976 64.5399 347.56 61.8073 342.622 61.036C337.595 60.2564 332.591 61.6104 328.462 64.8436C321.745 55.6199 309.591 53.9212 301.031 61.1509C300.443 61.6432 299.892 62.1684 299.37 62.7182C299.002 63.1039 298.657 63.506 298.326 63.9163C298.363 63.9819 298.4 64.0394 298.444 64.105L321.753 99.1206L322.34 98.6283C323.575 97.6107 352.439 73.6406 353.35 72.8774C354.342 72.0404 355.246 71.1131 356.054 70.1201C355.959 69.9642 355.856 69.8083 355.753 69.6524V69.6524Z" fill="#00BFA6"/>
<path d="M357.223 41.7515C354.019 37.0084 349.353 33.9557 344.091 33.1351C339.065 32.3555 334.061 33.7095 329.931 36.9427C323.215 27.719 311.061 26.0203 302.5 33.25C293.932 40.4714 292.088 54.192 298.326 63.9163C298.363 63.9819 298.4 64.0394 298.444 64.105L321.753 99.1206L322.341 98.6283C323.575 97.6107 352.439 73.6406 353.35 72.8774C354.342 72.0404 355.246 71.1131 356.054 70.1202C362.388 62.3736 363.094 50.4172 357.223 41.7515V41.7515ZM355.143 68.7989C354.342 69.8083 353.446 70.7356 352.461 71.5644C351.631 72.2702 326.272 93.3189 322.054 96.8229L299.627 63.1285C299.539 62.9972 299.451 62.8577 299.37 62.7182C293.771 53.7243 295.527 41.1935 303.389 34.5547C306.711 31.7565 310.605 30.4024 314.478 30.4024C320.063 30.4024 325.589 33.2171 329.204 38.5675L329.645 39.224L330.233 38.7235C338.338 31.8877 349.926 33.6849 356.054 42.7363C359.023 47.1265 360.28 52.5344 359.604 57.9832C359.096 62.0699 357.546 65.7955 355.143 68.7989L355.143 68.7989Z" fill="#3F3D56"/>
<path d="M515.507 83.7026L510.708 82.882C510.047 79.1236 509.07 75.4226 507.798 71.8612C508.342 75.3241 508.136 78.9266 507.24 82.2911L455.574 73.4695C458.102 61.0618 459.535 49.4666 458.683 39.5454C457.412 24.6594 467.288 11.2588 480.669 10.7336C481.036 10.7172 481.411 10.709 481.786 10.709C494.182 10.709 504.418 18.8002 505.91 29.2548C506.439 32.9968 507.181 36.706 507.798 40.4398C510.113 54.4231 519.798 73.0592 515.507 83.7026V83.7026Z" fill="#2F2E41"/>
<path d="M379.699 105.968C381.365 106.74 382.738 107.869 383.67 109.121L399.963 115.358L397.078 123.929L380.861 116.679C379.409 116.826 377.725 116.538 376.058 115.766C372.25 114.002 369.979 110.378 370.984 107.672C371.99 104.967 375.891 104.203 379.699 105.968V105.968V105.968Z" fill="#FFB6B6"/>
<path d="M432.089 381.1L425.645 381.27L422.053 348.94L431.563 348.689L432.089 381.1Z" fill="#FFB7B7"/>
<path d="M409.981 396.113C409.981 397.329 410.754 398.314 411.707 398.314H424.497C424.497 398.314 425.756 392.664 430.888 390.232L431.242 398.314H437.84L437.041 385.319C437.041 385.319 438.806 378.366 435.14 374.812C431.474 371.258 434.443 371.753 434.443 371.753L433.001 363.71L423.031 365.019L422.958 377.645L418.119 390.178L411.022 394.093C410.39 394.441 409.981 395.235 409.981 396.113L409.981 396.113H409.981Z" fill="#2F2E41"/>
<path d="M501.359 381.1L494.915 381.27L491.323 348.94L500.833 348.689L501.359 381.1Z" fill="#FFB7B7"/>
<path d="M479.251 396.113C479.251 397.329 480.024 398.314 480.977 398.314H493.767C493.767 398.314 495.026 392.664 500.158 390.232L500.512 398.314H507.11L506.311 385.319C506.311 385.319 508.076 378.366 504.41 374.812C500.744 371.258 503.713 371.753 503.713 371.753L502.271 363.71L492.301 365.019L492.228 377.645L487.389 390.178L480.292 394.093C479.66 394.441 479.251 395.235 479.251 396.113L479.251 396.113V396.113Z" fill="#2F2E41"/>
<path d="M449.373 146.069L489.053 153.455C494.255 163.058 504.484 199.409 504.484 199.409C504.484 199.409 501.804 300.397 504.096 358.824L487.583 359.429L465.539 228.951L436.146 356.146L420.112 357.414L422.184 266.7C422.184 266.7 444.34 147.193 449.373 146.069V146.069Z" fill="#2F2E41"/>
<path d="M468.103 65.4697L488.309 66.1749L509.147 97.2028C501.066 120.01 493.465 136.478 493.797 152.74C493.825 154.117 495.837 157.212 496.002 158.484C496.224 160.202 493.3 162.723 493.797 164.228L444.964 152.634C445.952 151.078 445.101 149.111 445.698 147.71C446.224 146.479 448.24 145.804 448.485 144.61C449.807 138.164 450.513 127.409 445.536 114.779C441.998 105.798 457.573 84.8483 456.736 74.6371L468.103 65.4697V65.4697Z" fill="#E6E6E6"/>
<path d="M472.735 79.9572V79.9572L435.566 135.988L391.995 122.589L393.889 109.896L427.067 116.913L445.576 85.1362C451.62 72.0893 463.532 69.4618 472.735 79.9572V79.9572Z" fill="#E6E6E6"/>
<path d="M477.527 58.3213C487.208 58.3213 495.057 49.5564 495.057 38.7443C495.057 27.9322 487.208 19.1672 477.527 19.1672C467.845 19.1672 459.996 27.9322 459.996 38.7443C459.996 49.5564 467.845 58.3213 477.527 58.3213Z" fill="#FFB7B7"/>
<path d="M493.829 214.446C494.322 212.508 495.166 210.854 496.171 209.675L499.822 190.877L507.781 193.079L503.22 211.91C503.52 213.504 503.46 215.406 502.967 217.344C501.841 221.773 498.883 224.714 496.359 223.913C493.836 223.113 492.703 218.875 493.829 214.446L493.829 214.446Z" fill="#FFB6B6"/>
<path d="M494.93 76.8328C494.93 76.8328 509.624 75.997 510.694 86.8789C511.765 97.7608 515.188 159.737 515.188 159.737L507.253 201.569L495.938 199.813L500.938 146.565L494.93 76.8328Z" fill="#E6E6E6"/>
<path d="M495.351 22.1074C495.351 26.5305 493.153 32.2255 493.153 38.9136L486.489 36.9769C486.356 35.6803 485.68 31.6265 485.379 30.3628C485.533 31.5527 485.864 35.5491 485.497 36.6815L482.227 35.7296C482.205 35.0484 482.153 34.3674 482.08 33.6945C481.947 32.3979 481.727 31.1177 481.426 29.854C481.58 31.0438 481.455 32.2666 481.088 33.3991C480.875 34.0227 480.595 34.6135 480.243 35.1551L464.106 30.453C460.197 28.8105 459.598 34.5908 459.66 41.8514C459.66 41.8514 457.456 16.4123 474.21 14.9434L476.737 12.1205C491.956 13.097 495.351 16.6175 495.351 22.1074V22.1074Z" fill="#2F2E41"/>
<path d="M459.43 46.1897C460.03 53.022 459.298 59.8959 458.427 66.6995C458.147 68.8891 457.836 71.1304 456.791 73.0797C455.746 75.029 453.803 76.6566 451.577 76.7071C455.077 77.763 459.114 76.8375 461.791 74.3654C464.509 71.8556 465.704 68.0514 465.795 64.3709C465.887 60.6904 464.995 57.0636 464.109 53.4881L459.43 46.1897V46.1897Z" fill="#2F2E41"/>
<path d="M491.427 19.8672C492.027 32.3237 491.296 44.856 490.425 57.2601C490.145 61.2522 489.833 65.3385 488.789 68.8924C487.744 72.4464 485.801 75.4137 483.574 75.5059C487.075 77.4308 491.111 75.7435 493.788 71.2364C496.506 66.6606 497.701 59.7249 497.793 53.0147C497.884 46.3045 496.992 39.6921 496.107 33.1735L491.427 19.8672V19.8672Z" fill="#2F2E41"/>
<path d="M118.803 391.254L129.351 391.253L134.368 345.818L118.801 345.819L118.803 391.254Z" fill="#A0616A"/>
<path d="M154.941 390.986C155.269 391.604 155.443 393.598 155.443 394.316C155.443 396.524 153.84 398.314 151.863 398.314H119.197C117.849 398.314 116.755 397.093 116.755 395.587V394.068C116.755 394.068 115.139 389.503 118.466 383.877C118.466 383.877 122.601 388.283 128.78 381.383L130.602 377.697L143.791 388.468L151.101 389.473C152.7 389.693 154.118 389.439 154.941 390.986V390.986Z" fill="#2F2E41"/>
<path d="M86.4705 391.254L97.0183 391.253L102.036 345.818L86.4684 345.819L86.4705 391.254Z" fill="#A0616A"/>
<path d="M122.609 390.986C122.937 391.604 123.11 393.598 123.11 394.316C123.11 396.524 121.508 398.314 119.53 398.314H86.8651C85.5163 398.314 84.4229 397.093 84.4229 395.587V394.068C84.4229 394.068 82.8069 389.503 86.1339 383.877C86.1339 383.877 90.2688 388.283 96.4474 381.383L98.2694 377.697L111.458 388.468L118.769 389.473C120.368 389.693 121.786 389.439 122.609 390.986V390.986Z" fill="#2F2E41"/>
<path d="M88.2062 163.713L81.5928 281.06L84.8995 371.602H105.48L118.334 217.873L115.479 371.602L134.5 371.328L154.708 194.486C154.708 194.486 154.34 176.022 148.094 166.585C141.848 157.148 88.2062 163.713 88.2062 163.713V163.713Z" fill="#2F2E41"/>
<path d="M164.786 136.717L148.22 137.446L150.155 158.11L182.631 185.459L187.04 178.073L163.72 148.085L164.786 136.717Z" fill="#A0616A"/>
<path d="M133.398 60.7254L110.618 58.2635L93.7174 67.2903V141.966L88.3431 154.515C86.6124 158.556 86.4303 163.211 87.8388 167.405L148.094 166.585L146.625 157.558L149.564 140.325L151.769 77.1377L133.398 60.7254H133.398Z" fill="#E6E6E6"/>
<path d="M146.992 76.7274C146.992 76.7274 152.136 70.9831 155.81 85.7542C159.484 100.525 168.302 153.045 168.302 153.045L147.36 153.455L141.848 97.2428L146.992 76.7274Z" fill="#E6E6E6"/>
<path d="M88.2062 139.915L86.0017 200.521L77.9187 201.461L74.9794 141.556L88.2062 139.915Z" fill="#A0616A"/>
<path d="M102.168 67.7007C102.168 67.7007 88.941 61.9564 85.2669 76.7274C81.5928 91.4985 72.7749 144.018 72.7749 144.018L88.941 145.313L107.312 88.216L102.168 67.7007V67.7007Z" fill="#E6E6E6"/>
<path d="M121.378 53.5772C132.478 53.5772 141.476 43.5286 141.476 31.1331C141.476 18.7376 132.478 8.68909 121.378 8.68909C110.278 8.68909 101.28 18.7376 101.28 31.1331C101.28 43.5286 110.278 53.5772 121.378 53.5772Z" fill="#A0616A"/>
<path d="M82.4061 218.764C85.7594 218.636 88.3221 213.42 88.1301 207.113C87.9381 200.807 85.0642 195.797 81.711 195.924C78.3577 196.052 75.795 201.268 75.987 207.574C76.179 213.881 79.0529 218.891 82.4061 218.764Z" fill="#A0616A"/>
<path d="M198.387 194.511C200.643 191.737 199.08 186.049 194.897 181.806C190.714 177.564 185.494 176.373 183.239 179.146C180.983 181.92 182.545 187.608 186.728 191.851C190.911 196.093 196.131 197.284 198.387 194.511Z" fill="#A0616A"/>
<path d="M136.95 11.8183C134.957 8.31701 133.586 9.73347 129.891 9.30132C127.774 9.05364 123.811 5.33631 121.737 5.87433C119.003 6.58352 116.201 7.32511 113.872 9.07588C108.936 5.83297 107.18 12.1804 102.9 16.4299C98.6201 20.6793 97.1685 28.1087 99.4745 33.963C100.573 36.7509 100.489 39.7095 102.275 42.0111C104.331 44.661 105.464 48.349 105.622 48.5531C106.478 49.6559 110.509 50.43 110.673 50.6418C112.287 52.7216 114.888 52.0807 116.502 54.1605L117.432 43.1572C116.125 41.8173 114.773 40.4034 114.164 38.543C113.554 36.6826 113.958 34.246 115.524 33.3137C116.755 32.5805 118.402 32.9102 119.474 31.9138C121.112 30.3928 120.102 27.2111 121.294 25.2401C121.999 24.0747 123.306 23.6056 124.516 23.2137C126.476 22.5784 128.436 21.9431 130.396 21.3078C132.219 20.7168 134.092 20.1198 135.985 20.2884C137.877 20.4572 139.824 21.5598 140.572 23.5088C139.882 19.4319 138.944 15.3196 136.95 11.8183L136.95 11.8183Z" fill="#2F2E41"/>
<path d="M205.319 152.88H205.319C202.826 145.706 195.598 142.148 189.175 144.932H189.175C182.813 147.689 179.63 155.634 181.992 162.756L181.806 162.837L190.833 188.813L212.237 179.537C212.945 179.381 213.65 179.158 214.346 178.856H214.346C220.77 176.073 223.956 168.001 221.463 160.828V160.827C218.97 153.654 211.742 150.096 205.319 152.88L205.319 152.88V152.88Z" fill="#00BFA6"/>
<path d="M379.564 13.9504V100.936C379.564 108.628 373.96 114.886 367.072 114.886H289.181C282.292 114.886 276.689 108.628 276.689 100.936V13.9504C276.689 6.25799 282.292 0 289.181 0H367.072C373.96 0 379.564 6.25799 379.564 13.9504ZM367.072 113.245C373.16 113.245 378.095 107.734 378.095 100.936V57.0811C378.095 26.4625 355.868 1.64123 328.45 1.64123H328.45C300.675 1.64123 278.158 26.7865 278.158 57.8047V100.936C278.158 107.734 283.093 113.245 289.181 113.245H367.072V113.245Z" fill="#3F3D56"/>
<path d="M362.895 31.3669L362.895 31.3669C356.097 30.1134 349.676 35.2515 348.554 42.8432L348.554 42.8433C347.442 50.363 351.947 57.4657 358.639 58.8181L358.606 59.0384L383.224 63.5778L386.964 38.2802C387.204 37.5204 387.391 36.7288 387.513 35.9065V35.9064C388.636 28.3147 384.035 21.1442 377.237 19.8907L377.236 19.8907C370.438 18.6372 364.018 23.7753 362.895 31.367L362.895 31.3669V31.3669Z" fill="#00BFA6"/>
<path d="M281.741 92.1543H281.741C279.248 84.981 272.02 81.4226 265.597 84.2064H265.597C259.234 86.9639 256.051 94.9089 258.414 102.03L258.228 102.111L267.255 128.088L288.659 118.811C289.367 118.655 290.072 118.433 290.768 118.131H290.768C297.191 115.347 300.378 107.275 297.885 100.102V100.102C295.392 92.9287 288.164 89.3704 281.741 92.1542L281.741 92.1543V92.1543Z" fill="#00BFA6"/>
<path d="M475.793 185.176V185.176C469.06 183.546 462.418 188.321 460.958 195.84L460.958 195.84C459.512 203.289 463.694 210.633 470.318 212.356L470.275 212.575L494.66 218.478L499.525 193.42C499.798 192.674 500.02 191.894 500.178 191.08L500.178 191.079C501.638 183.56 497.363 176.142 490.629 174.512L490.629 174.512C483.895 172.882 477.253 177.656 475.793 185.176L475.793 185.176V185.176Z" fill="#00BFA6"/>
<path d="M57.6953 385.404C56.1773 385.51 55.3383 383.404 56.4868 382.176L56.6011 381.669C56.586 381.629 56.5709 381.588 56.5557 381.547C55.0204 377.459 49.8174 377.487 48.2952 381.582C46.9442 385.215 45.2241 388.855 44.8005 392.698C44.6107 394.394 44.6961 396.122 45.0331 397.786C41.8674 390.063 40.2015 381.631 40.2015 373.15C40.2015 371.02 40.306 368.889 40.5195 366.764C40.6951 365.025 40.9372 363.297 41.2505 361.585C42.9448 352.331 46.6136 343.517 51.9055 336.155C54.4494 334.602 56.5709 332.174 57.8524 329.264C58.3128 328.215 58.6735 327.086 58.8443 325.936C58.5548 325.978 57.7527 321.054 57.9711 320.752C57.5676 320.068 56.8455 319.729 56.4048 319.061C54.2133 315.743 51.194 316.323 49.6178 320.832C46.2507 322.73 46.2181 325.877 48.2842 328.904C49.5986 330.83 49.7792 333.436 50.9325 335.497C50.8138 335.667 50.6904 335.831 50.5718 336.001C48.3959 339.118 46.514 342.467 44.9276 345.987C45.376 342.075 44.714 337.364 43.5855 334.326C42.3009 330.865 39.8931 327.951 37.7727 324.959C35.2258 321.365 30.0031 322.933 29.5544 327.489C29.5501 327.533 29.5458 327.577 29.5417 327.621C29.8566 327.82 30.1652 328.03 30.4666 328.253C32.1857 329.523 31.5916 332.499 29.5546 332.85L29.5085 332.858C29.6224 334.125 29.817 335.381 30.1017 336.616C27.3816 348.364 33.2542 352.642 41.6396 352.835C41.8247 352.941 42.0051 353.047 42.1902 353.147C41.3406 355.819 40.6619 358.559 40.1588 361.336C39.7079 363.79 39.3947 366.271 39.2191 368.762C39.0007 371.905 39.0197 375.064 39.257 378.201L39.2428 378.09C38.6401 374.634 36.9599 371.407 34.5204 369.17C30.8862 365.836 25.7518 364.608 21.8312 361.929C19.944 360.639 17.5256 362.306 17.8549 364.749L17.871 364.866C18.4547 365.131 19.0243 365.439 19.5748 365.783C19.8898 365.981 20.1983 366.192 20.4997 366.415C22.2188 367.685 21.6247 370.661 19.5877 371.012L19.5416 371.02C19.5084 371.025 19.4799 371.03 19.4467 371.036C20.4481 373.691 21.8435 376.156 23.59 378.281C25.2909 388.536 32.5961 389.509 40.4103 386.523H40.4151C41.2694 390.678 42.5176 394.738 44.1218 398.607H57.3635C57.411 398.443 57.4537 398.274 57.4965 398.109C56.2719 398.194 55.038 398.114 53.8324 397.865C54.8149 396.519 55.7973 395.162 56.7798 393.816C56.8035 393.79 56.8225 393.763 56.8415 393.737C57.3398 393.048 57.8429 392.364 58.3412 391.675L58.3415 391.674C58.3727 389.559 58.1456 387.451 57.6958 385.405L57.6954 385.404L57.6953 385.404L57.6953 385.404Z" fill="#F2F2F2"/>
<path d="M0.916334 400H549.302C549.808 400 550.218 399.542 550.218 398.977C550.218 398.412 549.808 397.953 549.302 397.953H0.916334C0.410267 397.953 0 398.412 0 398.977C0 399.542 0.410267 400 0.916334 400Z" fill="#E6E6E6"/>
</g>
<defs>
<clipPath id="clip0_5184_899">
<rect width="550.218" height="400" fill="white"/>
</clipPath>
</defs>
</svg>
