<svg width="555" height="400" viewBox="0 0 555 400" fill="none" xmlns="http://www.w3.org/2000/svg">
<g clip-path="url(#clip0_5184_785)">
<path d="M520.208 379.615L513.974 384.004L495.374 360.055L504.574 353.577L520.208 379.615Z" fill="#A0616A"/>
<path d="M524.656 386.502L505.487 400L505.329 399.738C504.042 397.595 503.594 394.986 504.084 392.486C504.573 389.985 505.96 387.798 507.938 386.404L507.939 386.404L509.713 381.061L517.973 379.338L519.647 378.16L524.656 386.502Z" fill="#2F2E41"/>
<path d="M413.377 391.117L405.942 391.116L402.405 360.058L413.379 360.058L413.377 391.117Z" fill="#A0616A"/>
<path d="M413.639 399.516L390.774 399.515V399.202C390.774 396.646 391.712 394.194 393.381 392.387C395.05 390.58 397.313 389.564 399.674 389.564H399.674L403.851 386.133L411.644 389.565H413.64L413.639 399.516Z" fill="#2F2E41"/>
<path d="M490.343 201.13L423.665 202.718L417.056 211.664C417.056 211.664 417.628 208.51 417.119 211.975C416.61 215.439 403.746 284.514 406.178 286.831C408.61 289.147 401.567 305.142 401.05 306.118C400.533 307.093 394.958 355.24 401.05 359.199L403.339 376.004H413.987C413.987 376.004 424.654 362.636 422.507 360.213C420.361 357.79 426.5 349.732 426.735 345.411C426.97 341.09 429.211 321.491 427.475 318.349C425.738 315.206 423.39 303.414 427.796 298.842C432.202 294.27 452.752 238.089 452.752 238.089C452.752 238.089 458.724 303.952 458.71 309.124C458.691 315.849 462.77 312.521 462.77 318.425C462.77 319.618 476.05 350.277 484.975 359.861L503.432 375.235L511.951 368.317V358.323C511.951 358.323 504.056 339.781 501.303 336.798C498.549 333.816 488.38 324.688 488.38 320.513C488.38 316.338 483.594 314.883 486.813 309.348C490.033 303.813 488.931 301.427 487.83 299.041C486.728 296.656 488.817 198.906 488.817 198.906L490.343 201.13Z" fill="#2F2E41"/>
<path d="M462.54 56.1886C473.668 56.1886 482.688 46.4199 482.688 34.3696C482.688 22.3192 473.668 12.5505 462.54 12.5505C451.412 12.5505 442.391 22.3192 442.391 34.3696C442.391 46.4199 451.412 56.1886 462.54 56.1886Z" fill="#A0616A"/>
<path d="M478.636 209.469L484.308 190.981L494.513 193.016L487.875 212.332C488.278 213.464 488.382 214.695 488.175 215.887C487.968 217.08 487.458 218.186 486.702 219.081C485.946 219.977 484.975 220.626 483.897 220.957C482.819 221.287 481.677 221.285 480.6 220.952C479.523 220.618 478.553 219.965 477.799 219.067C477.046 218.169 476.539 217.062 476.335 215.869C476.131 214.676 476.238 213.445 476.645 212.314C477.051 211.184 477.741 210.199 478.636 209.469L478.636 209.469Z" fill="#A0616A"/>
<path d="M361.011 173.739L374.907 161.367L382.542 168.977L367.42 181.492C367.204 182.683 366.687 183.785 365.925 184.674C365.163 185.564 364.187 186.205 363.106 186.527C362.026 186.849 360.884 186.838 359.81 186.495C358.735 186.153 357.77 185.493 357.022 184.589C356.275 183.685 355.775 182.573 355.58 181.378C355.384 180.184 355.5 178.954 355.914 177.826C356.329 176.699 357.025 175.72 357.925 174.998C358.826 174.276 359.894 173.84 361.011 173.739H361.011Z" fill="#A0616A"/>
<path d="M438.415 30.5525C440.588 31.2828 442.682 31.7133 444.094 29.7837C445.507 27.8542 445.138 25.6479 447.239 24.7177C448.996 24.0796 450.911 24.1756 452.606 24.9868C452.911 25.1098 453.209 25.2481 453.5 25.3865C453.664 25.2328 453.827 25.0868 454.004 24.9483C455.34 23.9198 456.989 23.4851 458.612 23.7337C457.426 24.3542 456.45 25.3626 455.822 26.6165C456.404 26.9317 456.993 27.2469 457.589 27.5159C460.095 28.626 462.806 29.0886 465.505 28.8671C468.205 28.6456 470.82 27.7461 473.143 26.2398C470.814 32.8817 472.625 35.2494 476.039 41.3148L476.174 41.6684C475.833 40.0771 480.299 38.2398 480.299 40.546C480.102 42.9088 479.625 45.2343 478.879 47.4647C483.259 40.3231 485.843 31.9669 484.146 23.949C483.784 22.2654 483.621 20.4589 482.634 19.0906C481.647 17.7299 479.83 16.9304 478.396 17.6992C478.218 15.092 477.391 12.5857 476.003 10.4468C474.615 8.30783 472.718 6.61617 470.513 5.55165C468.308 4.48712 465.878 4.08951 463.481 4.4011C461.084 4.71268 458.81 5.7218 456.901 7.32119C455.126 8.80486 453.728 10.7498 452.144 12.4794C450.561 14.2091 448.687 15.785 446.473 16.2155C445.067 16.4846 443.484 16.3231 442.362 17.2841C441.063 18.3988 441.049 20.359 441.056 22.2424C442.327 22.2032 443.58 22.5752 444.655 23.3109C443.339 23.3468 442.068 23.831 441.021 24.6947C441 24.7082 440.981 24.7236 440.964 24.7408C440.58 27.908 440.737 28.5769 438.415 30.5525Z" fill="#2F2E41"/>
<path d="M509.305 102.071C508.836 99.6368 507.907 97.3341 506.578 95.3069C505.249 93.2796 503.548 91.5713 501.581 90.2891C501.434 89.4747 501.173 88.9538 500.773 88.7996C495.046 86.5949 479.058 76.4097 479.058 76.4097L477.718 64.7628L448.788 63.2576L441.385 76.4097C441.385 76.4097 422.209 78.497 422.564 86.099C417.92 92.3719 397.247 120.401 384.856 138.937C378.934 147.796 374.901 154.489 375.419 155.597C377.163 159.329 374.713 156.811 371.973 157.485C369.232 158.16 370.561 159.914 370.623 162.499C370.685 165.085 361.259 170.525 361.259 170.525C367.01 172.751 374.214 181.902 374.214 181.902C374.214 181.902 381.19 173.944 382.457 173.112C383.724 172.28 384.429 171.066 388.437 169.56C392.444 168.053 390.762 166.907 391.053 163.714C391.344 160.521 392.319 162.882 397.946 159.937C403.573 156.992 399.005 158.116 400.562 154.091C402.119 150.067 401.621 152.27 406.687 148.943C409.732 146.943 412.756 144.006 416.965 138.937C419.758 135.572 423.072 131.27 427.263 125.673C427.291 125.635 427.318 125.596 427.347 125.558C427.628 130.095 427.845 134.633 427.974 138.937C428.341 151.164 427.991 161.473 426.347 164.313C424.041 168.298 420.136 181.634 416.962 193.343C416.347 195.614 416.239 198.01 416.645 200.335C417.052 202.66 417.961 204.847 419.3 206.718C420.638 208.588 422.367 210.088 424.345 211.095C426.323 212.101 428.492 212.586 430.676 212.508C450.367 211.805 479.181 210.178 484.797 206.609C487.852 207.082 490.87 207.801 493.826 208.759C493.826 208.759 495.813 197.998 496.476 196.564C497.138 195.129 497.138 193.694 499.788 190.107C502.438 186.521 500.45 186.521 499.125 183.651C497.801 180.782 499.788 182.216 503.1 176.477C506.412 170.739 503.1 174.325 502.438 170.021C501.775 165.717 502.438 167.869 505.087 162.13C507.283 157.375 508.569 151.136 510.076 138.936C510.388 136.413 510.709 133.641 511.049 130.567C512.174 120.412 510.751 109.568 509.305 102.071Z" fill="#00BFA6"/>
<path d="M192.834 382.701C192.392 382.723 191.955 382.597 191.581 382.341C191.208 382.085 190.916 381.711 190.746 381.269C190.575 380.828 190.534 380.34 190.628 379.872C190.722 379.404 190.947 378.979 191.271 378.654L191.419 378.018C191.4 377.967 191.38 377.916 191.36 377.866C190.915 376.728 190.17 375.758 189.218 375.077C188.265 374.396 187.148 374.036 186.007 374.04C184.866 374.045 183.752 374.415 182.804 375.103C181.857 375.791 181.118 376.767 180.681 377.909C178.934 382.464 176.711 387.027 176.163 391.844C175.922 393.973 176.024 396.131 176.464 398.223C172.361 388.532 170.231 377.999 170.217 367.339C170.216 364.664 170.354 361.991 170.628 359.332C170.855 357.153 171.17 354.989 171.573 352.84C173.772 341.183 178.493 330.257 185.348 320.959C188.666 318.999 191.35 315.984 193.037 312.321C193.648 311.005 194.08 309.599 194.319 308.149C193.945 308.202 192.908 302.029 193.19 301.65C192.669 300.793 191.735 300.367 191.165 299.531C188.332 295.371 184.429 296.097 182.391 301.75C178.038 304.129 177.996 308.075 180.667 311.87C182.366 314.284 182.6 317.551 184.091 320.136C183.937 320.348 183.778 320.554 183.624 320.767C180.82 324.671 178.376 328.864 176.327 333.285C176.825 328.333 176.231 323.322 174.592 318.667C172.931 314.329 169.818 310.675 167.077 306.924C163.785 302.419 157.033 304.385 156.452 310.096C156.447 310.151 156.441 310.206 156.436 310.262C156.843 310.51 157.242 310.774 157.632 311.054C158.122 311.408 158.501 311.915 158.721 312.507C158.94 313.099 158.99 313.749 158.862 314.372C158.735 314.995 158.437 315.561 158.007 315.998C157.577 316.434 157.035 316.719 156.453 316.817L156.393 316.827C156.538 318.416 156.795 319.991 157.16 321.538C153.643 336.265 161.236 341.629 172.076 341.87C172.316 342.003 172.549 342.136 172.788 342.262C170.73 348.579 169.439 355.159 168.947 361.837C168.669 365.777 168.685 369.734 168.996 373.671L168.978 373.532C168.192 369.154 166.036 365.204 162.873 362.349C158.174 358.169 151.536 356.63 146.468 353.271C145.929 352.896 145.303 352.696 144.663 352.695C144.023 352.693 143.395 352.89 142.855 353.261C142.315 353.633 141.884 354.164 141.613 354.792C141.342 355.42 141.243 356.119 141.327 356.807C141.334 356.855 141.341 356.904 141.348 356.953C142.103 357.287 142.839 357.67 143.551 358.103C143.958 358.352 144.356 358.616 144.746 358.895C145.236 359.249 145.616 359.756 145.835 360.348C146.055 360.94 146.104 361.59 145.977 362.213C145.849 362.836 145.551 363.403 145.121 363.839C144.691 364.275 144.15 364.56 143.567 364.658L143.508 364.668C143.465 364.674 143.428 364.681 143.385 364.688C144.676 368.026 146.488 371.098 148.742 373.771C150.941 386.627 160.385 387.847 170.487 384.103H170.493C171.602 389.319 173.208 394.396 175.286 399.253H192.405C192.466 399.047 192.521 398.834 192.577 398.628C190.992 398.736 189.401 398.633 187.84 398.322C189.11 396.635 190.38 394.934 191.65 393.246C191.678 393.214 191.705 393.181 191.73 393.146C192.374 392.283 193.024 391.425 193.669 390.562L193.669 390.561C193.703 387.913 193.423 385.271 192.834 382.701L192.834 382.701Z" fill="#F2F2F2"/>
<path d="M61.1588 354.661L65.8823 360.068L87.8149 342.471L80.8437 334.492L61.1588 354.661Z" fill="#C78F8F"/>
<path d="M68.899 357.652L63.5516 352.212L62.2385 350.879L48.6248 362.666L52.1661 366.719L56.3345 363.824L54.4196 369.299L63.8087 380.045C64.2586 380.56 64.8488 380.907 65.4933 381.033C66.1377 381.16 66.8026 381.06 67.3909 380.748C67.9792 380.436 68.4602 379.929 68.7635 379.301C69.0669 378.672 69.1768 377.955 69.0771 377.254L67.0508 363.058L70.6216 359.401L68.899 357.652Z" fill="#2F2E41"/>
<path d="M164.968 157.824L163.47 175.528C163.47 175.528 160.856 188.867 162.666 187.786C164.476 186.705 161.231 191.571 162.086 195.79C162.941 200.01 154.785 231.477 158.479 228.217C162.173 224.958 156.344 247.477 152.658 258.587C151.529 262.021 150.37 265.497 149.202 268.948C148.972 269.647 148.742 270.337 148.504 271.036C146.991 275.526 145.478 279.95 144.027 284.125C143.819 284.707 143.62 285.289 143.42 285.863C143.412 285.879 143.412 285.896 143.405 285.896C138.628 299.509 134.535 310.22 132.9 311.991C132.047 312.914 118.524 323.492 104.894 334.087C90.5873 345.205 76.1655 356.348 76.1655 356.348L62.6962 341.047C62.6962 341.047 63.0186 340.947 63.6253 340.748C64.7465 340.398 66.82 339.741 69.5385 338.868C80.8728 335.251 66.4743 329.621 76.7647 325.596C79.6673 324.465 81.6025 323.584 82.0401 323.118C84.5973 320.415 88.0301 313.971 89.6503 316.673C91.2705 319.376 98.6197 299.293 100.739 297.306C101.876 296.233 105.585 291.219 108.764 286.811C111.497 283.019 113.847 279.668 113.847 279.668C113.847 279.668 113.893 277.871 113.962 275.011C114.063 270.778 114.208 264.2 114.362 257.614C114.354 257.605 114.354 257.605 114.362 257.605C114.416 255.127 114.469 252.649 114.523 250.296C114.562 248.475 114.6 246.72 114.639 245.098C114.738 240.242 114.807 236.566 114.807 235.652C114.807 232.65 114.807 234.987 116.996 233.174C117.323 232.896 117.633 232.596 117.925 232.275C118.393 231.819 118.825 231.321 119.215 230.787C119.377 230.413 118.371 230.92 117.065 230.637C116.358 230.484 115.704 230.121 115.176 229.589C112.427 226.912 115.391 218.679 115.391 218.679C109.14 205.141 109.593 194.039 112.519 185.482C114.707 179.342 118.179 173.834 122.663 169.391C124.37 167.63 126.229 166.051 128.216 164.676L128.408 163.553L130.519 151.171C131.642 150.503 132.81 149.928 134.013 149.45C137.764 147.992 141.789 147.558 145.731 148.186C149.65 148.8 153.444 150.13 156.951 152.119C159.818 153.679 162.508 155.593 164.968 157.824V157.824Z" fill="#2F2E41"/>
<path d="M105.989 382.245L112.831 382.935L118.598 354.042L108.497 353.025L105.989 382.245Z" fill="#C78F8F"/>
<path d="M125.697 393.57L115.529 384.348L115.99 379.042L113.625 378.959L106.299 378.701H106.291L104.494 378.635L101.446 397.212L106.583 397.728L107.942 392.572L109.839 398.061L112.557 398.335L123.439 399.433C123.531 399.441 123.631 399.449 123.723 399.449C124.156 399.45 124.583 399.351 124.978 399.159C125.373 398.967 125.725 398.686 126.012 398.335C126.457 397.807 126.729 397.135 126.787 396.422C126.832 395.887 126.756 395.347 126.566 394.851C126.376 394.354 126.078 393.914 125.697 393.57V393.57Z" fill="#2F2E41"/>
<path d="M144.027 284.125C141.423 299.468 130.404 335.442 123.738 356.498C120.705 366.119 118.586 372.631 118.586 372.631L115.13 371.45H115.122L109.278 369.454L107.151 368.722H107.143L104.563 367.833C104.563 367.833 104.863 350.652 104.894 334.087C104.916 327.143 104.886 320.299 104.763 314.877C104.625 308.965 104.387 304.732 103.995 303.892C102.375 300.449 105.086 300.083 107.95 299.218C110.822 298.345 108.579 297.031 107.466 294.237C106.714 292.374 108.196 289.888 109.248 288.474C109.538 288.076 109.848 287.696 110.177 287.335C110.177 287.335 109.67 287.144 108.764 286.811C111.497 283.019 113.847 279.668 113.847 279.668C113.847 279.668 113.893 277.871 113.962 275.011C114.063 270.778 114.208 264.2 114.362 257.614C114.354 257.606 114.354 257.606 114.362 257.606C114.416 255.127 114.469 252.649 114.523 250.296C118.916 253.947 123.185 257.523 127.056 260.832C127.06 260.836 127.064 260.841 127.067 260.847C127.07 260.853 127.071 260.859 127.071 260.866C136.371 268.824 143.351 275.211 144.334 277.24C144.779 278.154 144.626 280.599 144.027 284.125Z" fill="#2F2E41"/>
<path d="M554.232 399.997H0.767921C0.564256 399.997 0.368931 399.909 0.224918 399.753C0.0809052 399.597 0 399.386 0 399.165C0 398.945 0.0809052 398.733 0.224918 398.577C0.368931 398.421 0.564256 398.333 0.767921 398.333H554.232C554.436 398.333 554.631 398.421 554.775 398.577C554.919 398.733 555 398.945 555 399.165C555 399.386 554.919 399.597 554.775 399.753C554.631 399.909 554.436 399.997 554.232 399.997Z" fill="#E6E6E6"/>
<path d="M126.642 127.896L128.081 142.351L127.235 161.305L166.003 156.317L169.645 127.896L165.004 127.946L126.642 127.896Z" fill="#FFB6B6"/>
<path d="M159.619 81.2092L145.028 68.7354L137.369 68.2532L126.004 76.1373L123.222 91.5111L116.64 108.823L126.293 155.543C126.293 155.543 127.199 158.896 124.826 159.298C122.454 159.701 122.738 164.643 122.738 164.643C122.738 164.643 123.221 168.926 120.918 169.303C118.614 169.68 112.471 169.68 117.846 177.164C123.222 184.649 165.738 156.342 165.738 156.342L171.913 121.254C171.913 121.254 183.889 103.835 170.992 93.8593L159.619 81.2092Z" fill="#00BFA6"/>
<path d="M95.9242 187.285C95.2813 186.416 94.8221 185.406 94.579 184.324C94.3359 183.242 94.3147 182.116 94.517 181.024C94.7194 179.933 95.1402 178.903 95.75 178.006C96.3597 177.11 97.1436 176.369 98.0463 175.837L116.399 109.139L127.875 115.396L107.888 179.324C108.614 181.026 108.739 182.957 108.238 184.751C107.737 186.545 106.646 188.078 105.171 189.059C103.697 190.041 101.941 190.402 100.236 190.075C98.5321 189.748 96.9978 188.755 95.9242 187.285L95.9242 187.285Z" fill="#C78F8F"/>
<path d="M128.64 75.5202C128.64 75.5202 125.36 73.6322 123.116 81.802C121.319 88.3425 106.743 127.301 106.557 136.772C105.358 137.048 104.277 137.747 103.485 138.761C102.693 139.775 102.235 141.045 102.183 142.372L120.205 144.987C123.354 142.111 124.181 138.226 122.962 137.073L126.875 125.499L143.2 88.6772L131.034 76.8392L128.64 75.5202Z" fill="#00BFA6"/>
<path d="M224.938 165.362C225.171 164.277 225.181 163.151 224.968 162.062C224.756 160.973 224.325 159.947 223.707 159.058C223.088 158.168 222.297 157.437 221.39 156.914C220.482 156.391 219.479 156.09 218.453 156.033L176.352 103.964L167.422 115.504L210.972 163.787C210.996 165.661 211.655 167.46 212.823 168.843C213.991 170.227 215.587 171.098 217.309 171.292C219.03 171.486 220.758 170.99 222.164 169.897C223.57 168.804 224.557 167.19 224.938 165.362L224.938 165.362Z" fill="#C78F8F"/>
<path d="M150.808 79.9082C150.808 79.9082 153.012 76.6697 158.297 82.9852C162.529 88.0413 191.229 116.342 195.179 124.796C196.371 124.482 197.625 124.607 198.744 125.15C199.863 125.693 200.783 126.624 201.359 127.796L186.154 138.594C182.166 137.475 179.869 134.359 180.507 132.749L172.358 124.146L142.934 98.5898L149.176 82.2185L150.808 79.9082Z" fill="#00BFA6"/>
<path d="M353.536 188.868C352.321 188.413 351.317 187.463 350.739 186.219C350.161 184.976 350.054 183.537 350.44 182.209C350.523 181.94 350.625 181.679 350.748 181.429L339.12 167.676L343.489 158.831L357.536 179.537C358.455 180.166 359.156 181.106 359.529 182.212C359.902 183.318 359.926 184.526 359.599 185.649C359.407 186.285 359.101 186.875 358.698 187.383C358.296 187.892 357.804 188.31 357.253 188.613C356.701 188.916 356.1 189.099 355.483 189.15C354.866 189.202 354.246 189.121 353.658 188.913V188.913C353.617 188.898 353.576 188.883 353.536 188.868Z" fill="#FFB6B6"/>
<path d="M278.991 84.401C278.606 86.3431 278.565 88.3464 278.87 90.305C278.95 90.8592 279.061 91.4077 279.202 91.9475C279.723 93.9653 280.217 95.8246 280.695 97.5021C280.975 98.5441 281.264 99.5259 281.54 100.437C283.131 105.757 284.374 108.769 285.255 109.403C285.682 109.713 286.111 109.997 286.526 110.275C288.658 111.687 290.202 112.711 289.169 115.317C289.019 115.689 288.841 116.048 288.636 116.388C288.294 116.961 287.916 117.507 287.504 118.024C287.27 118.316 287.053 118.624 286.856 118.947C286.599 119.359 286.487 119.707 286.625 120.021C286.8 120.408 287.285 120.601 288.325 120.655C288.49 120.663 288.679 120.674 288.882 120.673C288.948 120.678 289.016 120.675 289.092 120.676C289.226 120.678 289.377 120.679 289.531 120.672C290.816 120.646 292.474 121.378 294.248 122.497C299.484 125.799 305.655 132.447 305.73 132.529L344.255 175.188L345.006 174.644L346.789 173.347L347.406 172.901L348.11 172.389L351.173 170.168L352.722 169.048L342.785 149.29L341.703 147.143L340.776 145.29L321.805 107.562L314.27 94.5916L312.588 91.7019L305.422 79.3786C304.41 77.6349 303.091 76.1241 301.54 74.9325C299.989 73.7408 298.237 72.8917 296.383 72.4335C294.529 71.9753 292.609 71.917 290.734 72.2621C288.86 72.6071 287.066 73.3486 285.456 74.4443C285.347 74.5182 285.239 74.5937 285.133 74.6707C281.998 76.9289 279.795 80.4178 278.991 84.401Z" fill="#00BFA6"/>
<path d="M281.547 382.51L274.49 382.445L271.365 352.276L281.782 352.371L281.547 382.51Z" fill="#FFB6B6"/>
<path d="M283.42 378.984L281.577 378.851L274.059 378.294L271.64 378.119L271.594 383.583L260.321 391.865C259.764 392.275 259.343 392.866 259.119 393.554C258.894 394.241 258.879 394.988 259.074 395.685C259.27 396.383 259.666 396.994 260.205 397.431C260.745 397.867 261.398 398.105 262.072 398.11L276.101 398.235L278.559 392.847L279.457 398.269L284.756 398.318L283.42 378.984Z" fill="#2F2E41"/>
<path d="M355.86 376.925L349.114 379.171L337.726 351.431L347.683 348.116L355.86 376.925Z" fill="#FFB6B6"/>
<path d="M356.664 372.955L354.867 373.429L347.549 375.35L345.192 375.974L346.673 381.204L338.234 392.78C337.817 393.352 337.58 394.053 337.557 394.782C337.534 395.51 337.726 396.227 338.106 396.829C338.486 397.43 339.033 397.885 339.668 398.126C340.303 398.367 340.993 398.382 341.636 398.169L355.052 393.703L355.888 387.757L358.261 392.63L363.322 390.942L356.664 372.955Z" fill="#2F2E41"/>
<path d="M267.351 128.831L253.881 171.22L253.436 174.613C250.043 178.102 254.306 179.252 252.707 180.172C251.109 181.092 250.034 183.672 252.188 184.133C254.342 184.594 261.288 349.929 270.45 356.348C279.611 362.768 285.187 367.411 283.504 358.011C282.826 354.224 283.785 333.919 285.172 311.02C285.329 308.425 287.813 305.678 285.658 303.155C283.504 300.632 285.924 298.972 286.059 296.878C287.992 266.977 290.223 237.456 290.223 237.456C290.223 237.456 304.502 290.559 308.209 286.448C311.917 282.337 310.45 292.458 311.583 295.483C312.53 298.01 308.49 302.975 314.427 303.051C320.364 303.127 334.308 354.743 335.723 354.685C338.525 354.569 346.403 354.896 351.081 353.854C353.392 353.339 343.137 314.259 334.574 280.514C333.891 277.822 330.175 277.76 332.565 272.564C334.955 267.369 323.062 233.751 324.083 232.196C326.792 228.069 327.823 226.275 325.152 226.005C322.48 225.734 321.691 227.321 321.547 223.318C321.402 219.315 320.941 209.443 320.941 209.443C320.941 209.443 319.006 170.401 305.455 148.831L304.3 136.015L267.351 128.831Z" fill="#2F2E41"/>
<path d="M301.001 47.8999L283.139 50.6541L282.061 64.6605L273.247 79.5918C273.247 79.5918 253.654 94.5229 267.318 118.109C262.118 138.428 256.948 157.914 252.019 170.905C248.18 196.684 282.577 199.155 321.9 190.031C321.9 190.031 321.358 179.008 317.79 173.709C314.221 168.41 316.164 167.253 316.164 167.253L313.67 157.353C315.081 143.042 310.317 141.758 308.078 135.146L314.876 66.5452L301.001 47.8999Z" fill="#00BFA6"/>
<path d="M215.252 167.808C215.441 166.43 216.119 165.188 217.142 164.344C218.164 163.5 219.451 163.121 220.727 163.288C220.986 163.327 221.242 163.388 221.491 163.472L231.838 148.567L240.67 151.592L224.457 170.35C224.055 171.444 223.33 172.363 222.395 172.963C221.46 173.564 220.367 173.812 219.288 173.67C218.05 173.493 216.927 172.791 216.166 171.717C215.406 170.644 215.07 169.288 215.233 167.946V167.946C215.239 167.9 215.245 167.854 215.252 167.808Z" fill="#FFB6B6"/>
<path d="M307.156 75.0062C306.903 74.6651 306.626 74.3326 306.335 74.0081C304.306 71.7444 301.694 70.1967 298.84 69.5676C295.986 68.9385 293.023 69.2573 290.339 70.4824C290.078 70.5985 289.816 70.7317 289.563 70.8649C280.386 75.746 275.434 78.9977 274.834 80.5195C274.627 81.0352 274.45 81.5424 274.274 82.0328C274.105 82.5152 273.944 82.9724 273.775 83.3882C273.068 85.1679 272.254 86.274 270.181 85.775C269.493 85.5929 268.83 85.3163 268.207 84.9519C267.923 84.8021 267.662 84.6441 267.416 84.4943C266.526 83.9624 265.88 83.5799 265.443 83.9291C265.021 84.2698 265.005 85.1347 265.389 87.1389C265.516 87.9754 265.495 88.8304 265.328 89.6584C264.82 92.0741 264.025 94.4081 262.962 96.6022C261.371 100.042 259.58 103.369 257.602 106.565L239.333 134.772L238.097 136.676L236.745 138.764L225.964 155.412L226.601 156.119L229.274 159.071L229.865 159.728L230.403 160.327L231.793 161.865L233.098 163.304L262.225 137.608L265.474 134.739L271.294 129.6L283.22 119.08L305.789 96.4609C307.214 95.0445 308.36 93.331 309.158 91.4234C309.956 89.5157 310.391 87.4531 310.435 85.3592C310.435 85.2179 310.443 85.0847 310.443 84.9434C310.451 81.3172 309.289 77.802 307.156 75.0062V75.0062Z" fill="#00BFA6"/>
<path d="M290.278 47.39C301.301 47.39 310.237 37.7129 310.237 25.7756C310.237 13.8382 301.301 4.16113 290.278 4.16113C279.254 4.16113 270.318 13.8382 270.318 25.7756C270.318 37.7129 279.254 47.39 290.278 47.39Z" fill="#FFB6B6"/>
<path d="M316.729 55.747C319.407 59.8987 321.199 64.644 321.974 69.6386C319.815 71.1342 317.302 71.9198 314.74 71.9001C314.653 71.5367 314.566 71.1732 314.466 70.8098C313.724 67.9954 312.619 65.3083 311.185 62.8274C311.381 65.5026 311.046 68.1923 310.203 70.7156C308.848 70.0491 307.397 69.6436 305.914 69.5175C304.706 69.5175 303.515 69.8216 302.434 70.4059C301.178 65.8966 300.022 61.7506 299.202 58.7757C299.177 66.2331 289.084 72.7347 278.07 71.7924C277.672 71.5232 281.663 59.2603 281.277 58.9776C280.395 58.345 279.537 57.6585 278.679 56.9854C282.284 50.9549 286.2 44.4937 285.528 43.5245C285.578 44.7226 281.625 50.4838 277.324 55.922C274.938 54.024 288.499 23.1447 281.799 20.641C281.687 21.7313 280.208 21.7313 278.406 21.5025C277.93 19.7035 277.223 17.9861 276.305 16.4008C276.425 17.9977 276.247 19.6043 275.783 21.1256C274.003 21.1261 272.228 21.3292 270.488 21.7313C270.085 21.0451 269.641 20.3886 269.158 19.766C269.205 20.5247 269.184 21.2866 269.096 22.0409C267.318 22.4582 265.851 22.9428 265.64 23.3332C264.248 22.7813 266.622 20.291 265.752 18.9988C263.539 15.7682 266.821 11.0569 268.897 7.71853C273.16 0.880441 282.52 -1.48869 289.146 2.61686C289.444 1.49958 290.973 0.759262 292.937 0.261209C293.769 0.062528 294.621 -0.023394 295.473 0.00543651C303.925 0.166955 315.66 7.71851 316.12 16.8585C316.157 17.7738 316.219 18.7699 316.281 19.8333C316.878 30.0637 316.145 39.4998 322.596 46.984C324.933 49.6896 324.958 62.5044 324.063 69.1003C321.738 66.4484 320.085 56.1374 316.729 55.747Z" fill="#2F2E41"/>
<path d="M124.107 34.7631C122.354 39.4916 117.408 48.7904 116.738 53.863L117.039 53.5419C117.615 54.606 118.268 55.6181 118.994 56.5682C120.295 55.0889 121.866 53.9192 123.607 53.1336C122.656 55.2461 122.105 57.5434 121.987 59.89C123.854 66.2262 132.483 63.4046 137.539 62.7127C142.588 68.9669 149.306 70.5989 158.102 67.0033C160.562 67.2775 163.316 67.444 165.04 65.8698C166.764 64.2956 165.737 61.3803 166.665 59.1753C173.271 43.4692 167.174 37.8025 161.994 30.6808C160.854 29.1135 160.859 26.7747 159.472 25.2795C157.547 23.2068 154.597 22.5692 151.877 22.0585C152.583 22.0988 153.288 21.9415 153.922 21.6017C154.556 21.2618 155.099 20.7509 155.498 20.1181C155.848 19.4806 156.028 18.7508 156.02 18.0091C156.011 17.2675 155.813 16.5428 155.448 15.9151C154.476 14.1686 152.454 13.153 150.504 12.8993C148.582 12.758 146.652 12.9376 144.781 13.4319C143.569 13.6046 142.396 14.0108 141.316 14.6314C140.807 14.9257 140.392 15.3814 140.129 15.9376C139.865 16.4938 139.764 17.1239 139.84 17.7438C140.002 18.3162 140.282 18.8415 140.658 19.2805C141.034 19.7195 141.497 20.0609 142.012 20.2792C142.797 20.6387 143.623 20.8835 144.468 21.0072C140.588 20.4619 136.646 21.2091 133.168 23.1491C128.808 25.6672 125.866 30.0371 124.107 34.7631Z" fill="#2F2E41"/>
<path d="M147.712 61.2727C156.319 61.2727 163.296 53.7174 163.296 44.3975C163.296 35.0776 156.319 27.5223 147.712 27.5223C139.106 27.5223 132.129 35.0776 132.129 44.3975C132.129 53.7174 139.106 61.2727 147.712 61.2727Z" fill="#C78F8F"/>
<path d="M132.717 35.3494C133.621 38.3065 136.203 39.2594 138.589 39.8537C139.342 40.0436 140.099 40.2206 140.863 40.3781C141.145 39.9964 141.445 39.6223 141.758 39.2688C143.059 37.7895 144.63 36.6198 146.371 35.8341C145.618 37.5028 145.118 39.2918 144.889 41.1324C146.332 41.3591 147.782 41.5443 149.241 41.6881C150.475 41.9726 151.763 41.7327 152.839 41.0181C153.914 40.3035 154.695 39.1688 155.02 37.8484C156.348 40.2 157.918 42.4147 160.065 43.3488C161.293 43.8266 162.63 43.8659 163.88 43.4609C165.13 43.056 166.228 42.228 167.011 41.0985C168.25 39.2559 169.108 37.1471 169.529 34.9144C170.138 32.2957 170.477 29.2791 169.28 27.6177C168.322 26.273 166.668 26.2489 165.143 26.3681C161.776 26.6479 158.444 27.3019 155.2 28.3201L154.926 28.9887C155.483 25.3623 154.274 21.8733 152.037 20.6324C150.528 19.8028 148.712 19.9419 146.949 20.1102C144.683 20.2196 142.444 20.6885 140.304 21.5017C137.849 22.5244 135.746 24.3435 134.282 26.7102C132.716 29.2846 131.938 32.7956 132.717 35.3494Z" fill="#2F2E41"/>
<path d="M154.933 19.577C154.779 19.5278 155.177 19.5909 155.039 19.595C155.108 19.5907 155.176 19.5803 155.243 19.564C155.255 19.5615 155.41 19.508 155.307 19.5474C155.538 19.4724 155.745 19.3265 155.901 19.1273C156.267 18.6371 156.554 18.0836 156.75 17.4901C156.998 16.7057 157.396 15.987 157.919 15.381C158.067 15.2198 158.248 15.0987 158.448 15.0275C158.647 14.9564 158.859 14.9372 159.067 14.9715C159.275 15.0059 159.472 15.0927 159.643 15.2251C159.814 15.3575 159.953 15.5316 160.051 15.7334C160.248 16.5119 160.18 17.3411 159.86 18.0702C159.637 18.8121 159.305 19.5101 158.876 20.1373C158.158 21.163 157.179 21.9403 156.06 22.3744C154.765 22.8838 153.352 22.9275 152.032 22.499C151.858 22.4206 151.708 22.2891 151.602 22.1203C151.495 21.9515 151.436 21.7528 151.432 21.5484C151.428 21.3439 151.479 21.1426 151.579 20.969C151.678 20.7953 151.822 20.6568 151.993 20.5703L154.195 19.5944C154.311 19.5386 154.436 19.5081 154.562 19.5047C154.689 19.5012 154.815 19.5248 154.933 19.5742C155.052 19.6235 155.16 19.6976 155.252 19.7923C155.343 19.8869 155.417 20.0002 155.468 20.1257C155.52 20.2512 155.548 20.3864 155.551 20.5236C155.554 20.6608 155.532 20.7973 155.486 20.9253C155.44 21.0533 155.372 21.1702 155.284 21.2695C155.196 21.3688 155.092 21.4483 154.976 21.5037L154.972 21.5057L152.77 22.4816L152.731 20.5528C153.006 20.6387 153.289 20.691 153.574 20.7089C153.879 20.7419 154.186 20.7279 154.487 20.6672C154.775 20.6263 155.058 20.5515 155.331 20.4441C155.506 20.3749 155.678 20.2962 155.846 20.2081C155.907 20.1761 155.967 20.1428 156.027 20.1084C156.022 20.1109 156.279 19.9494 156.166 20.0252C156.451 19.8282 156.718 19.6028 156.964 19.3521C157.051 19.2632 157.131 19.1667 157.204 19.0636C157.329 18.8968 157.445 18.7221 157.552 18.5406C157.769 18.1561 157.941 17.7439 158.063 17.3134C158.119 17.1325 158.166 16.9486 158.205 16.7623C158.215 16.6601 158.232 16.5588 158.256 16.4591C158.338 16.2215 158.24 16.5978 158.334 16.7007L158.74 17.0246C158.816 17.0492 158.897 17.0549 158.975 17.0413C159.054 17.0276 159.128 16.9951 159.194 16.9459C159.242 16.8727 159.231 16.8848 159.162 16.9824C159.082 17.0972 159.008 17.2175 158.942 17.3424C158.797 17.6365 158.665 17.9384 158.548 18.2469C158.306 18.9031 157.999 19.5294 157.634 20.1152C157.277 20.7077 156.755 21.1628 156.145 21.4156C155.534 21.6684 154.865 21.7061 154.234 21.5232C153.997 21.421 153.807 21.222 153.704 20.9692C153.601 20.7163 153.594 20.4299 153.685 20.1717C153.782 19.9172 153.966 19.7131 154.198 19.6023C154.431 19.4914 154.694 19.4823 154.933 19.577V19.577Z" fill="#2F2E41"/>
</g>
<defs>
<clipPath id="clip0_5184_785">
<rect width="555" height="400" fill="white"/>
</clipPath>
</defs>
</svg>
